<svg clip-rule="evenodd" fill-rule="evenodd" stroke-linejoin="round" stroke-miterlimit="2" viewBox="0 0 500 500" xmlns="http://www.w3.org/2000/svg"><path d="M496.289 276.777c-4.986-45.4-10.194-68.454-24.082-96.23 0 0 41.664-124.992 13.888-176.378-9.36-17.304-102.827 23.443-138.88 51.386 0 0-55.552-13.86-97.216-13.86s-97.216 13.86-97.216 13.86C116.73 27.612 23.263-13.135 13.903 4.169-13.873 55.555 27.79 180.547 27.79 180.547c-13.888 27.776-19.096 50.83-24.082 96.23-5.486 49.775 5.43 89.453 10.194 98.202 5.416 9.944 32.873 42.011 69.44 69.44 55.552 41.664 138.88 55.552 166.656 55.552s111.104-13.888 166.656-55.552c36.567-27.429 64.024-59.496 69.44-69.44 4.763-8.75 15.68-48.427 10.194-98.202z" fill="#ffcc4d" fill-rule="nonzero"/><path d="M27.79 41.667C34 23.029 106.12 55.555 120.008 69.443c0 0-64.44 41.664-78.328 83.328 0 0-27.776-69.44-13.888-111.104zM472.207 41.667c-6.208-18.638-78.328 13.888-92.216 27.776 0 0 64.44 41.664 78.328 83.328 0 0 27.776-69.44 13.888-111.104z" fill="#f18f26" fill-rule="nonzero"/><path d="M68.538 77.818c0-19.638 84.245 19.401 70.357 33.289s-27.776 22.263-41.664 36.15-28.693-55.551-28.693-69.44zM431.46 77.818c0-19.638-84.245 19.401-70.357 33.289s27.776 22.263 41.664 36.15 28.692-55.551 28.692-69.44z" fill="#ffcc4d" fill-rule="nonzero"/><path d="M9.75 347.203a6.938 6.938 0 0 1-4.305-12.388c2.25-1.764 55.83-43.33 147.88-36.178 3.819.277 6.68 3.624 6.388 7.444s-3.57 6.958-7.458 6.388c-86.564-6.583-137.7 32.86-138.2 33.262a7.083 7.083 0 0 1-4.305 1.472zM132.91 282.443c-.681 0-1.39-.097-2.07-.305-66.524-20.79-121.34-4.82-121.895-4.667-3.68 1.125-7.541-.972-8.652-4.652-1.098-3.68.986-7.541 4.652-8.638 2.403-.723 59.524-17.319 130.02 4.694 3.666 1.152 5.708 5.041 4.555 8.708-.917 2.958-3.653 4.86-6.61 4.86zM490.247 347.203a6.938 6.938 0 0 0 4.305-12.388c-2.25-1.764-55.83-43.33-147.879-36.178-3.819.277-6.68 3.624-6.388 7.444s3.569 6.958 7.458 6.388c86.564-6.583 137.7 32.86 138.2 33.262a7.083 7.083 0 0 0 4.304 1.472zM367.089 282.443c.68 0 1.388-.097 2.069-.305 66.523-20.79 121.34-4.82 121.895-4.667 3.68 1.125 7.541-.972 8.652-4.652 1.097-3.68-.986-7.541-4.652-8.638-2.403-.723-59.524-17.319-130.02 4.694-3.666 1.152-5.708 5.041-4.555 8.708.903 2.958 3.652 4.86 6.61 4.86z" fill="#fee7b8" fill-rule="nonzero"/><path d="M347.215 361.091H152.783c-7.666 0-13.888-6.208-13.888-13.888s6.222-13.888 13.888-13.888h194.432c7.68 0 13.888 6.208 13.888 13.888s-6.208 13.888-13.888 13.888z" fill="#664500" fill-rule="nonzero"/><path d="M249.999 270.819c41.664 0 41.664 6.944 41.664 20.832s-20.832 41.664-41.664 41.664-41.664-27.776-41.664-41.664-.014-20.832 41.664-20.832z" fill="#e75a70" fill-rule="nonzero"/><path d="M483.428 133.703c-2.374-2.306-17.596 3.805-32.997-4.042-31.776-16.193-112.077-31.817-164.351 5.222-5.597 3.958-28.984 4.625-35.526 4.347-6.54.292-29.928-.375-35.525-4.347-52.26-37.039-132.561-21.415-164.337-5.222-15.402 7.847-30.623 1.736-32.998 4.042-3.43 3.32-3.43 16.61.014 19.943 3.417 3.32 20.513 7.152 23.915 17.11 3.43 9.972 3.458 68.857 30.734 89.217 25.54 19.054 85.12 24.79 122.882 3.305 32.942-18.735 31.79-58.177 37.83-81.675 2.153-8.375 8.222-12.597 17.5-12.597s15.346 4.222 17.498 12.597c6.041 23.484 4.875 62.94 37.831 81.675 37.762 21.47 97.341 15.735 122.867-3.305 27.29-20.346 27.318-79.245 30.734-89.217 3.403-9.958 20.5-13.805 23.916-17.11 3.444-3.333 3.458-16.624.013-19.943zm-280.454 50.691c-1.07 15.346-3.805 44.817-22.179 55.274-11.263 6.417-25.943 10.319-41.303 10.319h-.014c-17.013 0-40.594-4.82-49.816-11.694-11.527-8.596-15.916-43.983-17.568-57.218-1.056-8.43-3.889-29.026 5.388-32.193 14.721-5.013 35.262-8.93 56.274-8.93 9.625 0 41.956.598 57.705 10.291 13.957 8.57 12.11 25.707 11.513 34.151zm226.069-3.514c-1.653 13.25-6.041 48.817-17.568 57.413-9.222 6.875-32.804 11.694-49.817 11.694h-.013c-15.374 0-30.04-3.902-41.317-10.319-18.374-10.444-21.11-39.733-22.18-55.08-.583-8.443-2.444-25.706 11.514-34.275 15.763-9.694 48.08-10.36 57.704-10.36 21.013 0 41.54 3.846 56.275 8.86 9.277 3.166 6.457 23.637 5.402 32.067z" fill="#292f33" fill-rule="nonzero"/><path d="M199.127 141.522s-.833-44.636-18.193-58.69c-18.277-14.792-33.067 8.262-33.067 8.262s-3.5-29.762-23.332-27.276-19.013 21.499-19.013 21.499S94.134 59.694 72.455 68.79C51.373 77.637 61.9 96.9 61.9 96.9s-15.902-5.694-23.138 5.777c-9.93 15.707 13.86 28.11 13.86 28.11s49.595-11.57 74.399-10.75 72.106 21.485 72.106 21.485zM300.87 141.522s.834-44.636 18.194-58.69c18.277-14.792 33.067 8.262 33.067 8.262s3.5-29.762 23.332-27.276c19.846 2.486 19.013 21.499 19.013 21.499s11.388-25.623 33.067-16.527c21.082 8.847 10.555 28.11 10.555 28.11s15.902-5.68 23.151 5.79c9.916 15.708-13.86 28.11-13.86 28.11s-49.594-11.568-74.398-10.75c-24.818.806-72.12 21.472-72.12 21.472z" fill="#292f33" fill-rule="nonzero"/></svg>
