<svg id="eS08yYBJjb91" xmlns="http://www.w3.org/2000/svg" xmlns:xlink="http://www.w3.org/1999/xlink" viewBox="0 0 600 600" shape-rendering="geometricPrecision" text-rendering="geometricPrecision" width="600" height="600"><g id="eS08yYBJjb92" transform="matrix(13 0 0 13 66 66.000013)" clip-rule="evenodd"><path d="M34,16C34,6,26.837,0,18,0C9.164,0,2,6,2,16c0,5.574.002,10.388,6,12.64L8,33c0,1.657,1.343,3,3,3s3-1.343,3-3v-3.155c.324.027.659.05,1,.07L15,33c0,1.657,1.343,3,3,3s3-1.343,3-3v-3.085c.342-.021.676-.043,1-.07L22,33c0,1.657,1.344,3,3,3c1.657,0,3-1.343,3-3v-4.36c5.998-2.252,6-7.066,6-12.64Z" clip-rule="evenodd" fill="#ccd6dd" stroke-linejoin="round" stroke-miterlimit="2"/><path d="M18,22c-3.623,0-6.027-.422-9-1-.679-.131-2,0-2,2c0,4,4.595,9,11,9c6.404,0,11-5,11-9c0-2-1.321-2.132-2-2-2.973.578-5.377,1-9,1Z" clip-rule="evenodd" fill="#664500" stroke-linejoin="round" stroke-miterlimit="2"/><path d="M9,23c0,0,3,1,9,1s9-1,9-1-2,4-9,4-9-4-9-4Z" clip-rule="evenodd" fill="#fff" stroke-linejoin="round" stroke-miterlimit="2"/><path d="M15.894,14.211l-6-3c-.988-.494-2.189-.093-2.684.895-.494.988-.093,2.189.895,2.684l4.212,2.106c-.306.533-.317,1.105-.317,1.105v2c0,0,0,2,2,2s2-2,2-2v-2c0,0-.003-.109-.025-.263.338-.189.628-.471.814-.843.494-.988.093-2.189-.895-2.684Z" clip-rule="evenodd" fill="#553986" stroke-linejoin="round" stroke-miterlimit="2"/><path d="M28.789,12.106c-.493-.986-1.694-1.391-2.684-.895l-6,3c-.988.494-1.389,1.695-.895,2.684.186.372.476.654.814.843-.021.154-.024.263-.024.263v2c0,0,0,2,2,2s2-2,2-2v-2c0,0-.011-.572-.318-1.105l4.212-2.106c.989-.495,1.389-1.696.895-2.684Z" clip-rule="evenodd" fill="#553986" stroke-linejoin="round" stroke-miterlimit="2"/><path d="M20.783,5.444c.069.42-.222.764-.647.764h-4.451c-.426,0-.717-.344-.647-.764l.745-4.472c.07-.421.476-.764.902-.764h2.451c.426,0,.832.344.901.764l.746,4.472Z" clip-rule="evenodd" fill="#3f7123" stroke-linejoin="round" stroke-miterlimit="2"/><path d="M35,11c0,2.762-2.238,5-5,5s-5-2.238-5-5s4-10,5-10s5,7.238,5,10Z" clip-rule="evenodd" fill="#5dadec" stroke-linejoin="round" stroke-miterlimit="2"/></g><g id="eS08yYBJjb910" transform="matrix(1.928363 2.298133-2.298133 1.928363 306.657827 223.92143)" opacity="0" clip-rule="evenodd"><path d="M35.734,19.929C35.375,16.66,35,15,34,13c0,0,3-9,1-12.7-.674-1.246-7.404,1.688-10,3.7c0,0-4-.998-7-.998s-7,.998-7,.998C8.404,1.988,1.674,-0.946,1,0.3C-1,4,2,13,2,13c-1,2-1.375,3.66-1.734,6.929C-0.129,23.513,0.657,26.37,1,27c.39.716,2.367,3.025,5,5c4,3,10,4,12,4s8-1,12-4c2.633-1.975,4.61-4.284,5-5c.343-.63,1.129-3.487.734-7.071Z" clip-rule="evenodd" fill="#ffcc4d" stroke-linejoin="round" stroke-miterlimit="2"/><path d="M2,3c.447-1.342,5.64,1,6.64,2C8.64,5,4,8,3,11c0,0-2-5-1-8Z" clip-rule="evenodd" fill="#f18f26" stroke-linejoin="round" stroke-miterlimit="2"/><path d="M34,3c-.447-1.342-5.64,1-6.64,2c0,0,4.64,3,5.64,6c0,0,2-5,1-8Z" clip-rule="evenodd" fill="#f18f26" stroke-linejoin="round" stroke-miterlimit="2"/><path d="M4.934,5.603C4.934,4.189,11,7,10,8s-2,1.603-3,2.603-2.066-4-2.066-5Z" clip-rule="evenodd" fill="#ffcc4d" stroke-linejoin="round" stroke-miterlimit="2"/><path d="M31.066,5.603C31.066,4.189,25,7,26,8s2,1.603,3,2.603s2.066-4,2.066-5Z" clip-rule="evenodd" fill="#ffcc4d" stroke-linejoin="round" stroke-miterlimit="2"/><path d="M0.701,25c-.148,0-.294-.065-.393-.19-.171-.217-.134-.531.083-.702.162-.127,4.02-3.12,10.648-2.605.275.02.481.261.46.536s-.257.501-.537.46c-6.233-.474-9.915,2.366-9.951,2.395-.093.071-.202.106-.31.106Z" clip-rule="evenodd" fill="#fee7b8" stroke-linejoin="round" stroke-miterlimit="2"/><path d="M9.569,20.337c-.049,0-.1-.007-.149-.022-4.79-1.497-8.737-.347-8.777-.336-.265.081-.543-.07-.623-.335-.079-.265.071-.543.335-.622.173-.052,4.286-1.247,9.362.338.264.083.411.363.328.627-.066.213-.263.35-.476.35Z" clip-rule="evenodd" fill="#fee7b8" stroke-linejoin="round" stroke-miterlimit="2"/><path d="M35.299,25c.148,0,.294-.065.393-.19.171-.217.134-.531-.083-.702-.162-.127-4.02-3.12-10.648-2.605-.275.02-.481.261-.46.536s.257.501.537.46c6.233-.474,9.915,2.366,9.951,2.395.093.071.202.106.31.106Z" clip-rule="evenodd" fill="#fee7b8" stroke-linejoin="round" stroke-miterlimit="2"/><path d="M26.431,20.337c.049,0,.1-.007.149-.022c4.79-1.497,8.737-.347,8.777-.336.265.081.543-.07.623-.335.079-.265-.071-.543-.335-.622-.173-.052-4.286-1.247-9.362.338-.264.083-.411.363-.328.627.065.213.263.35.476.35Z" clip-rule="evenodd" fill="#fee7b8" stroke-linejoin="round" stroke-miterlimit="2"/><path d="M25,26h-14c-.552,0-1-.447-1-1s.448-1,1-1h14c.553,0,1,.447,1,1s-.447,1-1,1Z" clip-rule="evenodd" fill="#664500" stroke-linejoin="round" stroke-miterlimit="2"/><path d="M18,19.5c3,0,3,.5,3,1.5s-1.5,3-3,3-3-2-3-3-.001-1.5,3-1.5Z" clip-rule="evenodd" fill="#e75a70" stroke-linejoin="round" stroke-miterlimit="2"/><path d="M34.808,9.627c-.171-.166-1.267.274-2.376-.291-2.288-1.166-8.07-2.291-11.834.376-.403.285-2.087.333-2.558.313-.471.021-2.155-.027-2.558-.313C11.719,7.045,5.937,8.17,3.649,9.336c-1.109.565-2.205.125-2.376.291-.247.239-.247,1.196.001,1.436.246.239,1.477.515,1.722,1.232.247.718.249,4.958,2.213,6.424c1.839,1.372,6.129,1.785,8.848.238c2.372-1.349,2.289-4.189,2.724-5.881.155-.603.592-.907,1.26-.907s1.105.304,1.26.907c.435,1.691.351,4.532,2.724,5.881c2.719,1.546,7.009,1.133,8.847-.238c1.965-1.465,1.967-5.706,2.213-6.424.245-.717,1.476-.994,1.722-1.232.248-.24.249-1.197.001-1.436Zm-20.194,3.65c-.077,1.105-.274,3.227-1.597,3.98-.811.462-1.868.743-2.974.743h-.001c-1.225,0-2.923-.347-3.587-.842-.83-.619-1.146-3.167-1.265-4.12-.076-.607-.28-2.09.388-2.318c1.06-.361,2.539-.643,4.052-.643.693,0,3.021.043,4.155.741c1.005.617.872,1.851.829,2.459Zm16.278-.253c-.119.954-.435,3.515-1.265,4.134-.664.495-2.362.842-3.587.842h-.001c-1.107,0-2.163-.281-2.975-.743-1.323-.752-1.52-2.861-1.597-3.966-.042-.608-.176-1.851.829-2.468c1.135-.698,3.462-.746,4.155-.746c1.513,0,2.991.277,4.052.638.668.228.465,1.702.389,2.309Z" clip-rule="evenodd" fill="#292f33" stroke-linejoin="round" stroke-miterlimit="2"/><path d="M14.337,10.19c0,0-.06-3.214-1.31-4.226-1.316-1.065-2.381.595-2.381.595s-.252-2.143-1.68-1.964-1.369,1.548-1.369,1.548-.82-1.845-2.381-1.19c-1.518.637-.76,2.024-.76,2.024s-1.145-.41-1.666.416c-.715,1.131.998,2.024.998,2.024s3.571-.833,5.357-.774s5.192,1.547,5.192,1.547Z" clip-rule="evenodd" fill="#292f33" stroke-linejoin="round" stroke-miterlimit="2"/><path d="M21.663,10.19c0,0,.06-3.214,1.31-4.226c1.316-1.065,2.381.595,2.381.595s.252-2.143,1.68-1.964c1.429.179,1.369,1.548,1.369,1.548s.82-1.845,2.381-1.19c1.518.637.76,2.024.76,2.024s1.145-.409,1.667.417c.714,1.131-.998,2.024-.998,2.024s-3.571-.833-5.357-.774c-1.787.058-5.193,1.546-5.193,1.546Z" clip-rule="evenodd" fill="#292f33" stroke-linejoin="round" stroke-miterlimit="2"/></g><g id="eS08yYBJjb925" transform="matrix(1.928363 2.298133-2.298133 1.928363 306.655881 223.923083)" opacity="0" clip-rule="evenodd"><path d="M32.664,8.519C29.364,5.134,23.42,4.75,18,4.75s-11.364.384-14.664,3.769C0.582,11.344,0,15.751,0,19.791c0,5.263,1.982,11.311,6.357,14.244C9.364,36.051,13.95,35.871,18,35.871s8.636.18,11.643-1.836C34.018,31.101,36,25.054,36,19.791c0-4.04-.582-8.447-3.336-11.272Z" clip-rule="evenodd" fill="#f4900c" stroke-linejoin="round" stroke-miterlimit="2"/><circle r="5" transform="translate(7 21)" clip-rule="evenodd" fill="#ff7892" fill-rule="evenodd" stroke-linejoin="round" stroke-miterlimit="2"/><circle r="5" transform="translate(29 21)" clip-rule="evenodd" fill="#ff7892" fill-rule="evenodd" stroke-linejoin="round" stroke-miterlimit="2"/><path d="M23.485,27.879C23.474,27.835,22.34,23.5,18,23.5s-5.474,4.335-5.484,4.379c-.053.213.043.431.231.544.187.112.433.086.596-.06.01-.008,1.014-.863,4.657-.863c3.59,0,4.617.83,4.656.863.095.09.219.137.344.137.084,0,.169-.021.246-.064.196-.112.294-.339.239-.557Z" clip-rule="evenodd" fill="#664500" stroke-linejoin="round" stroke-miterlimit="2"/><path d="M16,18c-.419,0-.809-.265-.949-.684C14.848,16.717,14.034,15,13,15c-1.062,0-1.888,1.827-2.051,2.316-.175.523-.738.808-1.265.632-.524-.174-.807-.741-.632-1.265C9.177,16.307,10.356,13,13,13s3.823,3.307,3.949,3.684c.175.524-.108,1.091-.632,1.265-.106.034-.213.051-.317.051Z" clip-rule="evenodd" fill="#664500" stroke-linejoin="round" stroke-miterlimit="2"/><path d="M26,18c-.419,0-.809-.265-.948-.684C24.849,16.717,24.033,15,23,15c-1.062,0-1.889,1.827-2.052,2.316-.175.523-.736.808-1.265.632-.523-.174-.807-.741-.632-1.265C19.177,16.307,20.355,13,23,13s3.823,3.307,3.948,3.684c.175.524-.108,1.091-.632,1.265-.105.034-.212.051-.316.051Z" clip-rule="evenodd" fill="#664500" stroke-linejoin="round" stroke-miterlimit="2"/><path d="M6.002,0.95c.026-.497.435-.896.92-.936.632-.053.912.447,1.146.953.73,1.574,1.508,3.121,2.544,4.52.72.973,1.589,2.014,2.696,2.564.589.197.862.911.55,1.449.525.911-.513,1.79-1.366,1.364-1.16.67-3.078-1.545-3.733-2.334C7.913,7.511,7.263,6.339,6.805,5.1c-.469-1.27-.883-2.779-.803-4.15Z" clip-rule="evenodd" fill="#f4900c" stroke-linejoin="round" stroke-miterlimit="2"/><path d="M29.99,0.95c-.026-.497-.435-.896-.92-.936-.632-.053-.912.447-1.146.953-.73,1.574-1.508,3.121-2.544,4.52-.72.973-1.589,2.014-2.696,2.564-.589.197-.862.911-.55,1.449-.525.911.513,1.79,1.366,1.364c1.16.67,3.078-1.545,3.733-2.334.846-1.018,1.496-2.19,1.954-3.429.469-1.271.883-2.78.803-4.151Z" clip-rule="evenodd" fill="#f4900c" stroke-linejoin="round" stroke-miterlimit="2"/></g><g id="eS08yYBJjb934" transform="matrix(1.928363 2.298133-2.298133 1.928363 306.660465 223.919221)" opacity="0" clip-rule="evenodd"><path d="M36,18c0,9.941-8.059,18-18,18s-18-8.059-18-18s8.059-18,18-18s18,8.059,18,18" clip-rule="evenodd" fill="#ffcc4d" stroke-linejoin="round" stroke-miterlimit="2"/><circle r="5" transform="translate(29 23)" clip-rule="evenodd" fill="#ff7892" fill-rule="evenodd" stroke-linejoin="round" stroke-miterlimit="2"/><circle r="5" transform="translate(7 23)" clip-rule="evenodd" fill="#ff7892" fill-rule="evenodd" stroke-linejoin="round" stroke-miterlimit="2"/><path d="M18.625,20.937c-3.543.759-5.981.85-9.01.908-.691.015-1.955.419-1.536,2.375.838,3.911,6.379,7.837,12.642,6.495c6.262-1.342,9.708-7.194,8.87-11.105-.419-1.956-1.739-1.808-2.375-1.536-2.786,1.187-5.048,2.104-8.591,2.863Z" clip-rule="evenodd" fill="#65471b" stroke-linejoin="round" stroke-miterlimit="2"/><path d="M11,24.004v6c0,3,2,6,6,6s6-3,6-6v-6h-12Z" clip-rule="evenodd" fill="#e8596e" stroke-linejoin="round" stroke-miterlimit="2"/><path d="M17,31.883c.301,0,.545-.244.545-.545v-6.295h-1.091v6.295c.001.301.245.545.546.545Z" clip-rule="evenodd" fill="#dd2f45" stroke-linejoin="round" stroke-miterlimit="2"/><path d="M10.034,23.801c0,0,3.143.349,9.01-.908s8.591-2.864,8.591-2.864-1.117,4.33-7.962,5.797-9.639-2.025-9.639-2.025Z" clip-rule="evenodd" fill="#fff" stroke-linejoin="round" stroke-miterlimit="2"/><path d="M15.457,15.815c-.06-.135-1.499-3.297-4.457-3.297-2.957,0-4.397,3.162-4.457,3.297-.092.207-.032.449.144.591.177.143.427.147.61.014.013-.009,1.262-.902,3.703-.902c2.426,0,3.674.881,3.702.901.088.066.193.099.298.099.11,0,.221-.037.311-.109.179-.142.238-.386.146-.594Z" clip-rule="evenodd" fill="#66471b" stroke-linejoin="round" stroke-miterlimit="2"/><path d="M31,13.5c0,3.59-2.91,6.5-6.5,6.5s-6.5-2.91-6.5-6.5s2.91-6.5,6.5-6.5s6.5,2.91,6.5,6.5Z" clip-rule="evenodd" fill="#f5f8fa" stroke-linejoin="round" stroke-miterlimit="2"/><circle r="2.5" transform="translate(24.5 13.5)" clip-rule="evenodd" fill="#292f33" fill-rule="evenodd" stroke-linejoin="round" stroke-miterlimit="2"/><path d="M23.777,0.345c-1.212-.094-2.473-.159-3.773-.19-.661-.016-1.328-.026-2.004-.026-.672,0-1.336.01-1.993.025-1.302.031-2.564.096-3.777.19C5.34,0.88,0.169,2.451,0.169,5.287c0,3.588,8.264,5.771,17.831,5.771s17.831-2.183,17.831-5.771c0-2.835-5.168-4.405-12.054-4.942ZM18,7.383c-6.861,0-12.91-.833-12.91-2.736c0-.536.494-1.023,1.339-1.449c1.153-.581,2.978-1.044,5.189-1.349c1.911-.262,4.098-.41,6.382-.41c2.291,0,4.485.148,6.4.413c2.242.31,4.086.783,5.232,1.377.807.418,1.278.894,1.278,1.418c0,1.903-6.049,2.736-12.91,2.736Z" clip-rule="evenodd" fill="#5dadec" stroke-linejoin="round" stroke-miterlimit="2"/><path d="M24.4,1.853c2.242.31,4.086.783,5.232,1.377l.062.017c-2.285-1.674-4.57-2.56-5.917-2.902-1.212-.094-2.473-.159-3.773-.19l.018.007L24.4,1.853Z" clip-rule="evenodd" fill="#3b94d9" stroke-linejoin="round" stroke-miterlimit="2"/><path d="M6.429,3.199c1.153-.581,2.978-1.044,5.189-1.349l4.366-1.688.023-.008c-1.302.031-2.564.096-3.777.19-1.347.342-3.633,1.227-5.919,2.902l.118-.047Z" clip-rule="evenodd" fill="#3b94d9" stroke-linejoin="round" stroke-miterlimit="2"/><path d="M28.472,3.375c-.66-.443-1.346-.91-2.001-1.26C23.947,0.765,21.063,0,18,0c-2.929,0-5.695.7-8.14,1.941-1.089.553-1.881.999-2.17,1.434h20.782Z" clip-rule="evenodd" fill="#ffcc4d" stroke-linejoin="round" stroke-miterlimit="2"/></g><g id="eS08yYBJjb949" transform="matrix(1.928363 2.298133-2.298133 1.928363 306.655867 223.923071)" opacity="0" clip-rule="evenodd"><path d="M34,16C34,6,26.837,0,18,0C9.164,0,2,6,2,16c0,5.574.002,10.388,6,12.64L8,33c0,1.657,1.343,3,3,3s3-1.343,3-3v-3.155c.324.027.659.05,1,.07L15,33c0,1.657,1.343,3,3,3s3-1.343,3-3v-3.085c.342-.021.676-.043,1-.07L22,33c0,1.657,1.344,3,3,3c1.657,0,3-1.343,3-3v-4.36c5.998-2.252,6-7.066,6-12.64Z" clip-rule="evenodd" fill="#ccd6dd" stroke-linejoin="round" stroke-miterlimit="2"/><path d="M18,22c-3.623,0-6.027-.422-9-1-.679-.131-2,0-2,2c0,4,4.595,9,11,9c6.404,0,11-5,11-9c0-2-1.321-2.132-2-2-2.973.578-5.377,1-9,1Z" clip-rule="evenodd" fill="#664500" stroke-linejoin="round" stroke-miterlimit="2"/><path d="M9,23c0,0,3,1,9,1s9-1,9-1-2,4-9,4-9-4-9-4Z" clip-rule="evenodd" fill="#fff" stroke-linejoin="round" stroke-miterlimit="2"/><path d="M15.894,14.211l-6-3c-.988-.494-2.189-.093-2.684.895-.494.988-.093,2.189.895,2.684l4.212,2.106c-.306.533-.317,1.105-.317,1.105v2c0,0,0,2,2,2s2-2,2-2v-2c0,0-.003-.109-.025-.263.338-.189.628-.471.814-.843.494-.988.093-2.189-.895-2.684Z" clip-rule="evenodd" fill="#553986" stroke-linejoin="round" stroke-miterlimit="2"/><path d="M28.789,12.106c-.493-.986-1.694-1.391-2.684-.895l-6,3c-.988.494-1.389,1.695-.895,2.684.186.372.476.654.814.843-.021.154-.024.263-.024.263v2c0,0,0,2,2,2s2-2,2-2v-2c0,0-.011-.572-.318-1.105l4.212-2.106c.989-.495,1.389-1.696.895-2.684Z" clip-rule="evenodd" fill="#553986" stroke-linejoin="round" stroke-miterlimit="2"/><path d="M20.783,5.444c.069.42-.222.764-.647.764h-4.451c-.426,0-.717-.344-.647-.764l.745-4.472c.07-.421.476-.764.902-.764h2.451c.426,0,.832.344.901.764l.746,4.472Z" clip-rule="evenodd" fill="#3f7123" stroke-linejoin="round" stroke-miterlimit="2"/><path d="M35,11c0,2.762-2.238,5-5,5s-5-2.238-5-5s4-10,5-10s5,7.238,5,10Z" clip-rule="evenodd" fill="#5dadec" stroke-linejoin="round" stroke-miterlimit="2"/></g><script><![CDATA[!function(t,n){"object"==typeof exports&&"undefined"!=typeof module?module.exports=n():"function"==typeof define&&define.amd?define(n):((t="undefined"!=typeof globalThis?globalThis:t||self).__SVGATOR_PLAYER__=t.__SVGATOR_PLAYER__||{},t.__SVGATOR_PLAYER__["7c8cb2ed"]=n())}(this,(function(){"use strict";function t(t,n){var r=Object.keys(t);if(Object.getOwnPropertySymbols){var e=Object.getOwnPropertySymbols(t);n&&(e=e.filter((function(n){return Object.getOwnPropertyDescriptor(t,n).enumerable}))),r.push.apply(r,e)}return r}function n(n){for(var r=1;r<arguments.length;r++){var e=null!=arguments[r]?arguments[r]:{};r%2?t(Object(e),!0).forEach((function(t){o(n,t,e[t])})):Object.getOwnPropertyDescriptors?Object.defineProperties(n,Object.getOwnPropertyDescriptors(e)):t(Object(e)).forEach((function(t){Object.defineProperty(n,t,Object.getOwnPropertyDescriptor(e,t))}))}return n}function r(t){return(r="function"==typeof Symbol&&"symbol"==typeof Symbol.iterator?function(t){return typeof t}:function(t){return t&&"function"==typeof Symbol&&t.constructor===Symbol&&t!==Symbol.prototype?"symbol":typeof t})(t)}function e(t,n){if(!(t instanceof n))throw new TypeError("Cannot call a class as a function")}function i(t,n){for(var r=0;r<n.length;r++){var e=n[r];e.enumerable=e.enumerable||!1,e.configurable=!0,"value"in e&&(e.writable=!0),Object.defineProperty(t,e.key,e)}}function u(t,n,r){return n&&i(t.prototype,n),r&&i(t,r),t}function o(t,n,r){return n in t?Object.defineProperty(t,n,{value:r,enumerable:!0,configurable:!0,writable:!0}):t[n]=r,t}function a(t){return(a=Object.setPrototypeOf?Object.getPrototypeOf:function(t){return t.__proto__||Object.getPrototypeOf(t)})(t)}function l(t,n){return(l=Object.setPrototypeOf||function(t,n){return t.__proto__=n,t})(t,n)}function f(){if("undefined"==typeof Reflect||!Reflect.construct)return!1;if(Reflect.construct.sham)return!1;if("function"==typeof Proxy)return!0;try{return Boolean.prototype.valueOf.call(Reflect.construct(Boolean,[],(function(){}))),!0}catch(t){return!1}}function s(t,n,r){return(s=f()?Reflect.construct:function(t,n,r){var e=[null];e.push.apply(e,n);var i=new(Function.bind.apply(t,e));return r&&l(i,r.prototype),i}).apply(null,arguments)}function c(t,n){if(n&&("object"==typeof n||"function"==typeof n))return n;if(void 0!==n)throw new TypeError("Derived constructors may only return object or undefined");return function(t){if(void 0===t)throw new ReferenceError("this hasn't been initialised - super() hasn't been called");return t}(t)}function h(t,n,r){return(h="undefined"!=typeof Reflect&&Reflect.get?Reflect.get:function(t,n,r){var e=function(t,n){for(;!Object.prototype.hasOwnProperty.call(t,n)&&null!==(t=a(t)););return t}(t,n);if(e){var i=Object.getOwnPropertyDescriptor(e,n);return i.get?i.get.call(r):i.value}})(t,n,r||t)}function v(t){return function(t){if(Array.isArray(t))return y(t)}(t)||function(t){if("undefined"!=typeof Symbol&&null!=t[Symbol.iterator]||null!=t["@@iterator"])return Array.from(t)}(t)||function(t,n){if(!t)return;if("string"==typeof t)return y(t,n);var r=Object.prototype.toString.call(t).slice(8,-1);"Object"===r&&t.constructor&&(r=t.constructor.name);if("Map"===r||"Set"===r)return Array.from(t);if("Arguments"===r||/^(?:Ui|I)nt(?:8|16|32)(?:Clamped)?Array$/.test(r))return y(t,n)}(t)||function(){throw new TypeError("Invalid attempt to spread non-iterable instance.\nIn order to be iterable, non-array objects must have a [Symbol.iterator]() method.")}()}function y(t,n){(null==n||n>t.length)&&(n=t.length);for(var r=0,e=new Array(n);r<n;r++)e[r]=t[r];return e}Number.isInteger||(Number.isInteger=function(t){return"number"==typeof t&&isFinite(t)&&Math.floor(t)===t}),Number.EPSILON||(Number.EPSILON=2220446049250313e-31);var g=p(Math.pow(10,-6));function p(t){var n=arguments.length>1&&void 0!==arguments[1]?arguments[1]:6;if(Number.isInteger(t))return t;var r=Math.pow(10,n);return Math.round((+t+Number.EPSILON)*r)/r}function d(t,n){var r=arguments.length>2&&void 0!==arguments[2]?arguments[2]:g;return Math.abs(t-n)<r}var m=Math.PI/180;function b(t){return t}function A(t,n,r){var e=1-r;return 3*r*e*(t*e+n*r)+r*r*r}function w(){var t=arguments.length>0&&void 0!==arguments[0]?arguments[0]:0,n=arguments.length>1&&void 0!==arguments[1]?arguments[1]:0,r=arguments.length>2&&void 0!==arguments[2]?arguments[2]:1,e=arguments.length>3&&void 0!==arguments[3]?arguments[3]:1;return t<0||t>1||r<0||r>1?null:d(t,n)&&d(r,e)?b:function(i){if(i<=0)return t>0?i*n/t:0===n&&r>0?i*e/r:0;if(i>=1)return r<1?1+(i-1)*(e-1)/(r-1):1===r&&t<1?1+(i-1)*(n-1)/(t-1):1;for(var u,o=0,a=1;o<a;){var l=A(t,r,u=(o+a)/2);if(d(i,l))break;l<i?o=u:a=u}return A(n,e,u)}}function x(){return 1}function k(t){return 1===t?1:0}function _(){var t=arguments.length>0&&void 0!==arguments[0]?arguments[0]:1,n=arguments.length>1&&void 0!==arguments[1]?arguments[1]:0;if(1===t){if(0===n)return k;if(1===n)return x}var r=1/t;return function(t){return t>=1?1:(t+=n*r)-t%r}}var S=Math.sin,O=Math.cos,j=Math.acos,E=Math.asin,M=Math.tan,P=Math.atan2,I=Math.PI/180,R=180/Math.PI,B=Math.sqrt,F=function(){function t(){var n=arguments.length>0&&void 0!==arguments[0]?arguments[0]:1,r=arguments.length>1&&void 0!==arguments[1]?arguments[1]:0,i=arguments.length>2&&void 0!==arguments[2]?arguments[2]:0,u=arguments.length>3&&void 0!==arguments[3]?arguments[3]:1,o=arguments.length>4&&void 0!==arguments[4]?arguments[4]:0,a=arguments.length>5&&void 0!==arguments[5]?arguments[5]:0;e(this,t),this.m=[n,r,i,u,o,a],this.i=null,this.w=null,this.s=null}return u(t,[{key:"determinant",get:function(){var t=this.m;return t[0]*t[3]-t[1]*t[2]}},{key:"isIdentity",get:function(){if(null===this.i){var t=this.m;this.i=1===t[0]&&0===t[1]&&0===t[2]&&1===t[3]&&0===t[4]&&0===t[5]}return this.i}},{key:"point",value:function(t,n){var r=this.m;return{x:r[0]*t+r[2]*n+r[4],y:r[1]*t+r[3]*n+r[5]}}},{key:"translateSelf",value:function(){var t=arguments.length>0&&void 0!==arguments[0]?arguments[0]:0,n=arguments.length>1&&void 0!==arguments[1]?arguments[1]:0;if(!t&&!n)return this;var r=this.m;return r[4]+=r[0]*t+r[2]*n,r[5]+=r[1]*t+r[3]*n,this.w=this.s=this.i=null,this}},{key:"rotateSelf",value:function(){var t=arguments.length>0&&void 0!==arguments[0]?arguments[0]:0;if(t%=360){var n=S(t*=I),r=O(t),e=this.m,i=e[0],u=e[1];e[0]=i*r+e[2]*n,e[1]=u*r+e[3]*n,e[2]=e[2]*r-i*n,e[3]=e[3]*r-u*n,this.w=this.s=this.i=null}return this}},{key:"scaleSelf",value:function(){var t=arguments.length>0&&void 0!==arguments[0]?arguments[0]:1,n=arguments.length>1&&void 0!==arguments[1]?arguments[1]:1;if(1!==t||1!==n){var r=this.m;r[0]*=t,r[1]*=t,r[2]*=n,r[3]*=n,this.w=this.s=this.i=null}return this}},{key:"skewSelf",value:function(t,n){if(n%=360,(t%=360)||n){var r=this.m,e=r[0],i=r[1],u=r[2],o=r[3];t&&(t=M(t*I),r[2]+=e*t,r[3]+=i*t),n&&(n=M(n*I),r[0]+=u*n,r[1]+=o*n),this.w=this.s=this.i=null}return this}},{key:"resetSelf",value:function(){var t=arguments.length>0&&void 0!==arguments[0]?arguments[0]:1,n=arguments.length>1&&void 0!==arguments[1]?arguments[1]:0,r=arguments.length>2&&void 0!==arguments[2]?arguments[2]:0,e=arguments.length>3&&void 0!==arguments[3]?arguments[3]:1,i=arguments.length>4&&void 0!==arguments[4]?arguments[4]:0,u=arguments.length>5&&void 0!==arguments[5]?arguments[5]:0,o=this.m;return o[0]=t,o[1]=n,o[2]=r,o[3]=e,o[4]=i,o[5]=u,this.w=this.s=this.i=null,this}},{key:"recomposeSelf",value:function(){var t=arguments.length>0&&void 0!==arguments[0]?arguments[0]:null,n=arguments.length>1&&void 0!==arguments[1]?arguments[1]:null,r=arguments.length>2&&void 0!==arguments[2]?arguments[2]:null,e=arguments.length>3&&void 0!==arguments[3]?arguments[3]:null,i=arguments.length>4&&void 0!==arguments[4]?arguments[4]:null;return this.isIdentity||this.resetSelf(),t&&(t.x||t.y)&&this.translateSelf(t.x,t.y),n&&this.rotateSelf(n),r&&(r.x&&this.skewSelf(r.x,0),r.y&&this.skewSelf(0,r.y)),!e||1===e.x&&1===e.y||this.scaleSelf(e.x,e.y),i&&(i.x||i.y)&&this.translateSelf(i.x,i.y),this}},{key:"decompose",value:function(){var t=arguments.length>0&&void 0!==arguments[0]?arguments[0]:0,n=arguments.length>1&&void 0!==arguments[1]?arguments[1]:0,r=this.m,e=r[0]*r[0]+r[1]*r[1],i=[[r[0],r[1]],[r[2],r[3]]],u=B(e);if(0===u)return{origin:{x:p(r[4]),y:p(r[5])},translate:{x:p(t),y:p(n)},scale:{x:0,y:0},skew:{x:0,y:0},rotate:0};i[0][0]/=u,i[0][1]/=u;var o=r[0]*r[3]-r[1]*r[2]<0;o&&(u=-u);var a=i[0][0]*i[1][0]+i[0][1]*i[1][1];i[1][0]-=i[0][0]*a,i[1][1]-=i[0][1]*a;var l=B(i[1][0]*i[1][0]+i[1][1]*i[1][1]);if(0===l)return{origin:{x:p(r[4]),y:p(r[5])},translate:{x:p(t),y:p(n)},scale:{x:p(u),y:0},skew:{x:0,y:0},rotate:0};i[1][0]/=l,i[1][1]/=l,a/=l;var f=0;return i[1][1]<0?(f=j(i[1][1])*R,i[0][1]<0&&(f=360-f)):f=E(i[0][1])*R,o&&(f=-f),a=P(a,B(i[0][0]*i[0][0]+i[0][1]*i[0][1]))*R,o&&(a=-a),{origin:{x:p(r[4]),y:p(r[5])},translate:{x:p(t),y:p(n)},scale:{x:p(u),y:p(l)},skew:{x:p(a),y:0},rotate:p(f)}}},{key:"clone",value:function(){var t=this.m;return new this.constructor(t[0],t[1],t[2],t[3],t[4],t[5])}},{key:"toString",value:function(){var t=arguments.length>0&&void 0!==arguments[0]?arguments[0]:" ";if(null===this.s){var n=this.m.map((function(t){return p(t)}));1===n[0]&&0===n[1]&&0===n[2]&&1===n[3]?this.s="translate("+n[4]+t+n[5]+")":this.s="matrix("+n.join(t)+")"}return this.s}}],[{key:"create",value:function(t){return t?Array.isArray(t)?s(this,v(t)):t instanceof this?t.clone():(new this).recomposeSelf(t.origin,t.rotate,t.skew,t.scale,t.translate):new this}}]),t}();function N(t,n,r){return t>=.5?r:n}function T(t,n,r){return 0===t||n===r?n:t*(r-n)+n}function q(t,n,r){var e=T(t,n,r);return e<=0?0:e}function L(t,n,r){var e=T(t,n,r);return e<=0?0:e>=1?1:e}function C(t,n,r){return 0===t?n:1===t?r:{x:T(t,n.x,r.x),y:T(t,n.y,r.y)}}function D(t,n,r){return 0===t?n:1===t?r:{x:q(t,n.x,r.x),y:q(t,n.y,r.y)}}function V(t,n,r){var e=function(t,n,r){return Math.round(T(t,n,r))}(t,n,r);return e<=0?0:e>=255?255:e}function z(t,n,r){return 0===t?n:1===t?r:{r:V(t,n.r,r.r),g:V(t,n.g,r.g),b:V(t,n.b,r.b),a:T(t,null==n.a?1:n.a,null==r.a?1:r.a)}}function G(t,n,r){var e=n.length;if(e!==r.length)return N(t,n,r);for(var i=new Array(e),u=0;u<e;u++)i[u]=T(t,n[u],r[u]);return i}function Y(t,n){for(var r=[],e=0;e<t;e++)r.push(n);return r}function $(t,n){if(--n<=0)return t;var r=(t=Object.assign([],t)).length;do{for(var e=0;e<r;e++)t.push(t[e])}while(--n>0);return t}var U,Q=function(){function t(n){e(this,t),this.list=n,this.length=n.length}return u(t,[{key:"setAttribute",value:function(t,n){for(var r=this.list,e=0;e<this.length;e++)r[e].setAttribute(t,n)}},{key:"removeAttribute",value:function(t){for(var n=this.list,r=0;r<this.length;r++)n[r].removeAttribute(t)}},{key:"style",value:function(t,n){for(var r=this.list,e=0;e<this.length;e++)r[e].style[t]=n}}]),t}(),H=/-./g,J=function(t,n){return n.toUpperCase()};function Z(t){return"function"==typeof t?t:N}function K(t){return t?"function"==typeof t?t:Array.isArray(t)?function(t){var n=arguments.length>1&&void 0!==arguments[1]?arguments[1]:b;if(!Array.isArray(t))return n;switch(t.length){case 1:return _(t[0])||n;case 2:return _(t[0],t[1])||n;case 4:return w(t[0],t[1],t[2],t[3])||n}return n}(t,null):function(t,n){var r=arguments.length>2&&void 0!==arguments[2]?arguments[2]:b;switch(t){case"linear":return b;case"steps":return _(n.steps||1,n.jump||0)||r;case"bezier":case"cubic-bezier":return w(n.x1||0,n.y1||0,n.x2||0,n.y2||0)||r}return r}(t.type,t.value,null):null}function W(t,n,r){var e=arguments.length>3&&void 0!==arguments[3]&&arguments[3],i=n.length-1;if(t<=n[0].t)return e?[0,0,n[0].v]:n[0].v;if(t>=n[i].t)return e?[i,1,n[i].v]:n[i].v;var u,o=n[0],a=null;for(u=1;u<=i;u++){if(!(t>n[u].t)){a=n[u];break}o=n[u]}return null==a?e?[i,1,n[i].v]:n[i].v:o.t===a.t?e?[u,1,a.v]:a.v:(t=(t-o.t)/(a.t-o.t),o.e&&(t=o.e(t)),e?[u,t,r(t,o.v,a.v)]:r(t,o.v,a.v))}function X(t,n){var r=arguments.length>2&&void 0!==arguments[2]?arguments[2]:null;return t&&t.length?"function"!=typeof n?null:("function"!=typeof r&&(r=null),function(e){var i=W(e,t,n);return null!=i&&r&&(i=r(i)),i}):null}function tt(t,n){return t.t-n.t}function nt(t,n,e,i,u){var o,a="@"===e[0],l="#"===e[0],f=U[e],s=N;switch(a?(o=e.substr(1),e=o.replace(H,J)):l&&(e=e.substr(1)),r(f)){case"function":if(s=f(i,u,W,K,e,a,n,t),l)return s;break;case"string":s=X(i,Z(f));break;case"object":if((s=X(i,Z(f.i),f.f))&&"function"==typeof f.u)return f.u(n,s,e,a,t)}return s?function(t,n,r){if(arguments.length>3&&void 0!==arguments[3]&&arguments[3])return t instanceof Q?function(e){return t.style(n,r(e))}:function(e){return t.style[n]=r(e)};if(Array.isArray(n)){var e=n.length;return function(i){var u=r(i);if(null==u)for(var o=0;o<e;o++)t[o].removeAttribute(n);else for(var a=0;a<e;a++)t[a].setAttribute(n,u)}}return function(e){var i=r(e);null==i?t.removeAttribute(n):t.setAttribute(n,i)}}(n,e,s,a):null}function rt(t,n,e,i){if(!i||"object"!==r(i))return null;var u=null,o=null;return Array.isArray(i)?o=function(t){if(!t||!t.length)return null;for(var n=0;n<t.length;n++)t[n].e&&(t[n].e=K(t[n].e));return t.sort(tt)}(i):(o=i.keys,u=i.data||null),o?nt(t,n,e,o,u):null}function et(t,n,r){if(!r)return null;var e=[];for(var i in r)if(r.hasOwnProperty(i)){var u=rt(t,n,i,r[i]);u&&e.push(u)}return e.length?e:null}function it(t,n){if(!n.duration||n.duration<0)return null;var r=function(t,n){if(!n)return null;var r=[];if(Array.isArray(n))for(var e=n.length,i=0;i<e;i++){var u=n[i];if(2===u.length){var o=null;if("string"==typeof u[0])o=t.getElementById(u[0]);else if(Array.isArray(u[0])){o=[];for(var a=0;a<u[0].length;a++)if("string"==typeof u[0][a]){var l=t.getElementById(u[0][a]);l&&o.push(l)}o=o.length?1===o.length?o[0]:new Q(o):null}if(o){var f=et(t,o,u[1]);f&&(r=r.concat(f))}}}else for(var s in n)if(n.hasOwnProperty(s)){var c=t.getElementById(s);if(c){var h=et(t,c,n[s]);h&&(r=r.concat(h))}}return r.length?r:null}(t,n.elements);return r?function(t,n){var r=arguments.length>2&&void 0!==arguments[2]?arguments[2]:1/0,e=arguments.length>3&&void 0!==arguments[3]?arguments[3]:1,i=arguments.length>4&&void 0!==arguments[4]&&arguments[4],u=arguments.length>5&&void 0!==arguments[5]?arguments[5]:1,o=t.length,a=e>0?n:0;i&&r%2==0&&(a=n-a);var l=null;return function(f,s){var c=f%n,h=1+(f-c)/n;s*=e,i&&h%2==0&&(s=-s);var v=!1;if(h>r)c=a,v=!0,-1===u&&(c=e>0?0:n);else if(s<0&&(c=n-c),c===l)return!1;l=c;for(var y=0;y<o;y++)t[y](c);return v}}(r,n.duration,n.iterations||1/0,n.direction||1,!!n.alternate,n.fill||1):null}function ut(t){return+("0x"+(t.replace(/[^0-9a-fA-F]+/g,"")||27))}function ot(t,n,r){return!t||!r||n>t.length?t:t.substring(0,n)+ot(t.substring(n+1),r,r)}function at(t){var n=arguments.length>1&&void 0!==arguments[1]?arguments[1]:27;return!t||t%n?t%n:at(t/n,n)}function lt(t,n,r){if(t&&t.length){var e=ut(r),i=ut(n),u=at(e)+5,o=ot(t,at(e,5),u);return o=o.replace(/\x7c$/g,"==").replace(/\x2f$/g,"="),o=function(t,n,r){var e=+("0x"+t.substring(0,4));t=t.substring(4);for(var i=n%e+r%27,u=[],o=0;o<t.length;o+=2)if("|"!==t[o]){var a=+("0x"+t[o]+t[o+1])-i;u.push(a)}else{var l=+("0x"+t.substring(o+1,o+1+4))-i;o+=3,u.push(l)}return String.fromCharCode.apply(String,u)}(o=(o=atob(o)).replace(/[\x41-\x5A]/g,""),i,e),o=JSON.parse(o)}}var ft=function(){function t(n,r){var i=arguments.length>2&&void 0!==arguments[2]?arguments[2]:{};e(this,t),this._id=0,this._running=!1,this._rollingBack=!1,this._animations=n,this.duration=r.duration,this.alternate=r.alternate,this.fill=r.fill,this.iterations=r.iterations,this.direction=i.direction||1,this.speed=i.speed||1,this.fps=i.fps||100,this.offset=i.offset||0,this.rollbackStartOffset=0}return u(t,[{key:"maxFiniteDuration",get:function(){return this.iterations>0?this.iterations*this.duration:this.duration}},{key:"_apply",value:function(t){for(var n=arguments.length>1&&void 0!==arguments[1]?arguments[1]:{},r=this._animations,e=r.length,i=0,u=0;u<e;u++)n[u]?i++:(n[u]=r[u](t,this.direction),n[u]&&i++);return i}},{key:"_rollback",value:function(){var t=this,n=1/0,r=null;this.rollbackStartOffset=this.offset,this._rollingBack=!0,this._running=!0;this._id=window.requestAnimationFrame((function e(i){if(t._rollingBack){null==r&&(r=i);var u=i-r,o=t.rollbackStartOffset-u,a=Math.round(o*t.speed);if(a>t.duration&&n!==1/0){var l=!!t.alternate&&a/t.duration%2>1,f=a%t.duration;a=(f+=l?t.duration:0)||t.duration}var s=t.fps?1e3/t.fps:0,c=Math.max(0,a);c<n-s&&(t.offset=c,n=c,t._apply(c));var h=t.iterations>0&&-1===t.fill&&a>=t.maxFiniteDuration;(a<=0||t.offset<a||h)&&t.stop(),t._id=window.requestAnimationFrame(e)}}))}},{key:"_start",value:function(){var t=this,n=arguments.length>0&&void 0!==arguments[0]?arguments[0]:0,r=-1/0,e=null,i={};this._running=!0;var u=function u(o){null==e&&(e=o);var a=Math.round((o-e+n)*t.speed),l=t.fps?1e3/t.fps:0;if(a>r+l&&!t._rollingBack&&(t.offset=a,r=a,t._apply(a,i)===t._animations.length))return void t.pause(!0);t._id=window.requestAnimationFrame(u)};this._id=window.requestAnimationFrame(u)}},{key:"_pause",value:function(){this._id&&window.cancelAnimationFrame(this._id),this._running=!1}},{key:"play",value:function(){if(!this._running)return this._rollingBack?this._rollback():this._start(this.offset)}},{key:"stop",value:function(){this._pause(),this.offset=0,this.rollbackStartOffset=0,this._rollingBack=!1,this._apply(0)}},{key:"reachedToEnd",value:function(){return this.iterations>0&&this.offset>=this.iterations*this.duration}},{key:"restart",value:function(){var t=arguments.length>0&&void 0!==arguments[0]&&arguments[0];this.stop(t),this.play(t)}},{key:"pause",value:function(){this._pause()}},{key:"reverse",value:function(){this.direction=-this.direction}}],[{key:"build",value:function(t,r){return delete t.animationSettings,t.options=lt(t.options,t.root,"7c8cb2ed"),t.animations.map((function(r){var e=lt(r.s,t.root,"7c8cb2ed");for(var i in delete r.s,t.animationSettings||(t.animationSettings=n({},e)),e)e.hasOwnProperty(i)&&(r[i]=e[i])})),(t=function(t,n){if(U=n,!t||!t.root||!Array.isArray(t.animations))return null;for(var r=document.getElementsByTagName("svg"),e=!1,i=0;i<r.length;i++)if(r[i].id===t.root&&!r[i].svgatorAnimation){(e=r[i]).svgatorAnimation=!0;break}if(!e)return null;var u=t.animations.map((function(t){return it(e,t)})).filter((function(t){return!!t}));return u.length?{element:e,animations:u,animationSettings:t.animationSettings,options:t.options||void 0}:null}(t,r))?{el:t.element,options:t.options||{},player:new this(t.animations,t.animationSettings,t.options)}:null}},{key:"push",value:function(t){return this.build(t)}},{key:"init",value:function(){var t=this,n=window.__SVGATOR_PLAYER__&&window.__SVGATOR_PLAYER__["7c8cb2ed"];Array.isArray(n)&&n.splice(0).forEach((function(n){return t.build(n)}))}}]),t}();function st(t){return p(t)+""}function ct(t){var n=arguments.length>1&&void 0!==arguments[1]?arguments[1]:" ";return t&&t.length?t.map(st).join(n):""}function ht(t){return st(t.x)+","+st(t.y)}function vt(t){if(!t)return"transparent";if(null==t.a||t.a>=1){var n=function(t){return 1===(t=parseInt(t).toString(16)).length?"0"+t:t},r=function(t){return t.charAt(0)===t.charAt(1)},e=n(t.r),i=n(t.g),u=n(t.b);return r(e)&&r(i)&&r(u)&&(e=e.charAt(0),i=i.charAt(0),u=u.charAt(0)),"#"+e+i+u}return"rgba("+t.r+","+t.g+","+t.b+","+t.a+")"}function yt(t){return t?"url(#"+t+")":"none"}!function(){for(var t=0,n=["ms","moz","webkit","o"],r=0;r<n.length&&!window.requestAnimationFrame;++r)window.requestAnimationFrame=window[n[r]+"RequestAnimationFrame"],window.cancelAnimationFrame=window[n[r]+"CancelAnimationFrame"]||window[n[r]+"CancelRequestAnimationFrame"];window.requestAnimationFrame||(window.requestAnimationFrame=function(n){var r=Date.now(),e=Math.max(0,16-(r-t)),i=window.setTimeout((function(){n(r+e)}),e);return t=r+e,i},window.cancelAnimationFrame=window.clearTimeout)}();var gt={f:null,i:D,u:function(t,n){return function(r){var e=n(r);t.setAttribute("rx",st(e.x)),t.setAttribute("ry",st(e.y))}}},pt={f:null,i:function(t,n,r){return 0===t?n:1===t?r:{width:q(t,n.width,r.width),height:q(t,n.height,r.height)}},u:function(t,n){return function(r){var e=n(r);t.setAttribute("width",st(e.width)),t.setAttribute("height",st(e.height))}}};Object.freeze({M:2,L:2,Z:0,H:1,V:1,C:6,Q:4,T:2,S:4,A:7});var dt={},mt=null;function bt(t){var n=function(){if(mt)return mt;if("object"!==("undefined"==typeof document?"undefined":r(document))||!document.createElementNS)return{};var t=document.createElementNS("http://www.w3.org/2000/svg","svg");return t&&t.style?(t.style.position="absolute",t.style.opacity="0.01",t.style.zIndex="-9999",t.style.left="-9999px",t.style.width="1px",t.style.height="1px",mt={svg:t}):{}}().svg;if(!n)return function(t){return null};var e=document.createElementNS(n.namespaceURI,"path");e.setAttributeNS(null,"d",t),e.setAttributeNS(null,"fill","none"),e.setAttributeNS(null,"stroke","none"),n.appendChild(e);var i=e.getTotalLength();return function(t){var n=e.getPointAtLength(i*t);return{x:n.x,y:n.y}}}function At(t){return dt[t]?dt[t]:dt[t]=bt(t)}function wt(t,n,r,e){if(!t||!e)return!1;var i=["M",t.x,t.y];if(n&&r&&(i.push("C"),i.push(n.x),i.push(n.y),i.push(r.x),i.push(r.y)),n?!r:r){var u=n||r;i.push("Q"),i.push(u.x),i.push(u.y)}return n||r||i.push("L"),i.push(e.x),i.push(e.y),i.join(" ")}function xt(t,n,r,e){var i=arguments.length>4&&void 0!==arguments[4]?arguments[4]:1,u=wt(t,n,r,e),o=At(u);try{return o(i)}catch(t){return null}}function kt(t,n,r){return t+(n-t)*r}function _t(t,n,r){var e=arguments.length>3&&void 0!==arguments[3]&&arguments[3],i={x:kt(t.x,n.x,r),y:kt(t.y,n.y,r)};return e&&(i.a=St(t,n)),i}function St(t,n){return Math.atan2(n.y-t.y,n.x-t.x)}function Ot(t,n,r,e){var i=1-e;return i*i*t+2*i*e*n+e*e*r}function jt(t,n,r,e){return 2*(1-e)*(n-t)+2*e*(r-n)}function Et(t,n,r,e){var i=arguments.length>4&&void 0!==arguments[4]&&arguments[4],u=xt(t,n,null,r,e);return u||(u={x:Ot(t.x,n.x,r.x,e),y:Ot(t.y,n.y,r.y,e)}),i&&(u.a=Mt(t,n,r,e)),u}function Mt(t,n,r,e){return Math.atan2(jt(t.y,n.y,r.y,e),jt(t.x,n.x,r.x,e))}function Pt(t,n,r,e,i){var u=i*i;return i*u*(e-t+3*(n-r))+3*u*(t+r-2*n)+3*i*(n-t)+t}function It(t,n,r,e,i){var u=1-i;return 3*(u*u*(n-t)+2*u*i*(r-n)+i*i*(e-r))}function Rt(t,n,r,e,i){var u=arguments.length>5&&void 0!==arguments[5]&&arguments[5],o=xt(t,n,r,e,i);return o||(o={x:Pt(t.x,n.x,r.x,e.x,i),y:Pt(t.y,n.y,r.y,e.y,i)}),u&&(o.a=Bt(t,n,r,e,i)),o}function Bt(t,n,r,e,i){return Math.atan2(It(t.y,n.y,r.y,e.y,i),It(t.x,n.x,r.x,e.x,i))}function Ft(t,n,r){var e=arguments.length>3&&void 0!==arguments[3]&&arguments[3];if(Tt(n)){if(qt(r))return Et(n,r.start,r,t,e)}else if(Tt(r)){if(n.end)return Et(n,n.end,r,t,e)}else{if(n.end)return r.start?Rt(n,n.end,r.start,r,t,e):Et(n,n.end,r,t,e);if(r.start)return Et(n,r.start,r,t,e)}return _t(n,r,t,e)}function Nt(t,n,r){var e=Ft(t,n,r,!0);return e.a=function(t){return arguments.length>1&&void 0!==arguments[1]&&arguments[1]?t+Math.PI:t}(e.a)/m,e}function Tt(t){return!t.type||"corner"===t.type}function qt(t){return null!=t.start&&!Tt(t)}var Lt=new F;var Ct={f:function(t){return t?t.join(" "):""},i:function(t,n,e){if(0===t)return n;if(1===t)return e;var i=n.length;if(i!==e.length)return N(t,n,e);for(var u,o=new Array(i),a=0;a<i;a++){if((u=r(n[a]))!==r(e[a]))return N(t,n,e);if("number"===u)o[a]=T(t,n[a],e[a]);else{if(n[a]!==e[a])return N(t,n,e);o[a]=n[a]}}return o}},Dt={f:null,i:G,u:function(t,n){return function(r){var e=n(r);t.setAttribute("x1",st(e[0])),t.setAttribute("y1",st(e[1])),t.setAttribute("x2",st(e[2])),t.setAttribute("y2",st(e[3]))}}},Vt={f:st,i:T},zt={f:st,i:L},Gt={f:function(t){var n=arguments.length>1&&void 0!==arguments[1]?arguments[1]:" ";return t&&t.length>0&&(t=t.map((function(t){return p(t,4)}))),ct(t,n)},i:function(t,n,r){var e,i,u,o=n.length,a=r.length;if(o!==a)if(0===o)n=Y(o=a,0);else if(0===a)a=o,r=Y(o,0);else{var l=(u=(e=o)*(i=a)/function(t,n){for(var r;n;)r=n,n=t%n,t=r;return t||1}(e,i))<0?-u:u;n=$(n,Math.floor(l/o)),r=$(r,Math.floor(l/a)),o=a=l}for(var f=[],s=0;s<o;s++)f.push(p(q(t,n[s],r[s])));return f}};function Yt(t,n,r){return t.map((function(t){return function(t,n,r){var e=t.v;if(!e||"g"!==e.t||e.s||!e.v||!e.r)return t;var i=r.getElementById(e.r),u=i&&i.querySelectorAll("stop")||[];return e.s=e.v.map((function(t,n){var r=u[n]&&u[n].getAttribute("offset");return{c:t,o:r=p(parseInt(r)/100)}})),delete e.v,t}(t,0,r)}))}var $t={gt:"gradientTransform",c:{x:"cx",y:"cy"},rd:"r",f:{x:"x1",y:"y1"},to:{x:"x2",y:"y2"}};function Ut(t,n,e,i,u,o,a,l){return Yt(t,0,l),n=function(t,n,r){for(var e,i,u,o=t.length-1,a={},l=0;l<=o;l++)(e=t[l]).e&&(e.e=n(e.e)),e.v&&"g"===(i=e.v).t&&i.r&&(u=r.getElementById(i.r))&&(a[i.r]={e:u,s:u.querySelectorAll("stop")});return a}(t,i,l),function(i){var u=e(i,t,Qt);if(!u)return"none";if("c"===u.t)return vt(u.v);if("g"===u.t){if(!n[u.r])return yt(u.r);var o=n[u.r];return function(t,n){for(var r=t.s,e=r.length;e<n.length;e++){var i=r[r.length-1].cloneNode();i.id=Zt(i.id),t.e.appendChild(i),r=t.s=t.e.querySelectorAll("stop")}for(var u=0,o=r.length,a=n.length-1;u<o;u++)r[u].setAttribute("stop-color",vt(n[Math.min(u,a)].c)),r[u].setAttribute("offset",n[Math.min(u,a)].o)}(o,u.s),Object.keys($t).forEach((function(t){if(void 0!==u[t])if("object"!==r($t[t])){var n,e="gt"===t?(n=u[t],Array.isArray(n)?"matrix("+n.join(" ")+")":""):u[t],i=$t[t];o.e.setAttribute(i,e)}else Object.keys($t[t]).forEach((function(n){if(void 0!==u[t][n]){var r=u[t][n],e=$t[t][n];o.e.setAttribute(e,r)}}))})),yt(u.r)}return"none"}}function Qt(t,r,e){if(0===t)return r;if(1===t)return e;if(r&&e){var i=r.t;if(i===e.t)switch(r.t){case"c":return{t:i,v:z(t,r.v,e.v)};case"g":if(r.r===e.r){var u={t:i,s:Ht(t,r.s,e.s),r:r.r};return r.gt&&e.gt&&(u.gt=G(t,r.gt,e.gt)),r.c?(u.c=C(t,r.c,e.c),u.rd=q(t,r.rd,e.rd)):r.f&&(u.f=C(t,r.f,e.f),u.to=C(t,r.to,e.to)),u}}if("c"===r.t&&"g"===e.t||"c"===e.t&&"g"===r.t){var o="c"===r.t?r:e,a="g"===r.t?n({},r):n({},e),l=a.s.map((function(t){return{c:o.v,o:t.o}}));return a.s="c"===r.t?Ht(t,l,a.s):Ht(t,a.s,l),a}}return N(t,r,e)}function Ht(t,n,r){if(n.length===r.length)return n.map((function(n,e){return Jt(t,n,r[e])}));for(var e=Math.max(n.length,r.length),i=[],u=0;u<e;u++){var o=Jt(t,n[Math.min(u,n.length-1)],r[Math.min(u,r.length-1)]);i.push(o)}return i}function Jt(t,n,r){return{o:L(t,n.o,r.o||0),c:z(t,n.c,r.c||{})}}function Zt(t){return t.replace(/-fill-([0-9]+)$/,(function(t,n){return"-fill-"+(+n+1)}))}var Kt={blur:D,brightness:q,contrast:q,"drop-shadow":function(t,n,r){return 0===t?n:1===t?r:{blur:D(t,n.blur,r.blur),offset:C(t,n.offset,r.offset),color:z(t,n.color,r.color)}},grayscale:q,"hue-rotate":T,invert:q,opacity:q,saturate:q,sepia:q};function Wt(t,n,r){if(0===t)return n;if(1===t)return r;var e=n.length;if(e!==r.length)return N(t,n,r);for(var i,u=[],o=0;o<e;o++){if(n[o].type!==r[o].type)return n;if(!(i=Kt[n[o].type]))return N(t,n,r);u.push({type:n.type,value:i(t,n[o].value,r[o].value)})}return u}var Xt={blur:function(t){return t?function(n){t.setAttribute("stdDeviation",ht(n))}:null},brightness:function(t,n,r){return(t=nn(r,n))?function(n){n=st(n),t.map((function(t){return t.setAttribute("slope",n)}))}:null},contrast:function(t,n,r){return(t=nn(r,n))?function(n){var r=st((1-n)/2);n=st(n),t.map((function(t){t.setAttribute("slope",n),t.setAttribute("intercept",r)}))}:null},"drop-shadow":function(t,n,r){var e=r.getElementById(n+"-blur");if(!e)return null;var i=r.getElementById(n+"-offset");if(!i)return null;var u=r.getElementById(n+"-flood");return u?function(t){e.setAttribute("stdDeviation",ht(t.blur)),i.setAttribute("dx",st(t.offset.x)),i.setAttribute("dy",st(t.offset.y)),u.setAttribute("flood-color",vt(t.color))}:null},grayscale:function(t){return t?function(n){t.setAttribute("values",ct(function(t){return[.2126+.7874*(t=1-t),.7152-.7152*t,.0722-.0722*t,0,0,.2126-.2126*t,.7152+.2848*t,.0722-.0722*t,0,0,.2126-.2126*t,.7152-.7152*t,.0722+.9278*t,0,0,0,0,0,1,0]}(n)))}:null},"hue-rotate":function(t){return t?function(n){return t.setAttribute("values",st(n))}:null},invert:function(t,n,r){return(t=nn(r,n))?function(n){n=st(n)+" "+st(1-n),t.map((function(t){return t.setAttribute("tableValues",n)}))}:null},opacity:function(t,n,r){return(t=r.getElementById(n+"-A"))?function(n){return t.setAttribute("tableValues","0 "+st(n))}:null},saturate:function(t){return t?function(n){return t.setAttribute("values",st(n))}:null},sepia:function(t){return t?function(n){return t.setAttribute("values",ct(function(t){return[.393+.607*(t=1-t),.769-.769*t,.189-.189*t,0,0,.349-.349*t,.686+.314*t,.168-.168*t,0,0,.272-.272*t,.534-.534*t,.131+.869*t,0,0,0,0,0,1,0]}(n)))}:null}};var tn=["R","G","B"];function nn(t,n){var r=tn.map((function(r){return t.getElementById(n+"-"+r)||null}));return-1!==r.indexOf(null)?null:r}var rn={fill:Ut,"fill-opacity":zt,stroke:Ut,"stroke-opacity":zt,"stroke-width":Vt,"stroke-dashoffset":{f:st,i:T},"stroke-dasharray":Gt,opacity:zt,transform:function(t,n,e,i){if(!(t=function(t,n){if(!t||"object"!==r(t))return null;var e=!1;for(var i in t)t.hasOwnProperty(i)&&(t[i]&&t[i].length?(t[i].forEach((function(t){t.e&&(t.e=n(t.e))})),e=!0):delete t[i]);return e?t:null}(t,i)))return null;var u=function(r,i,u){var o=arguments.length>3&&void 0!==arguments[3]?arguments[3]:null;return t[r]?e(i,t[r],u):n&&n[r]?n[r]:o};return n&&n.a&&t.o?function(n){var r=e(n,t.o,Nt);return Lt.recomposeSelf(r,u("r",n,T,0)+r.a,u("k",n,C),u("s",n,C),u("t",n,C)).toString()}:function(t){return Lt.recomposeSelf(u("o",t,Ft,null),u("r",t,T,0),u("k",t,C),u("s",t,C),u("t",t,C)).toString()}},"#filter":function(t,n,r,e,i,u,o,a){if(!n.items||!t||!t.length)return null;var l=function(t,n){var r=(t=t.map((function(t){return t&&Xt[t[0]]?(n.getElementById(t[1]),Xt[t[0]](n.getElementById(t[1]),t[1],n)):null}))).length;return function(n){for(var e=0;e<r;e++)t[e]&&t[e](n[e].value)}}(n.items,a);return l?(t=function(t,n){return t.map((function(t){return t.e=n(t.e),t}))}(t,e),function(n){l(r(n,t,Wt))}):null},"#line":Dt,points:{f:ct,i:G},d:Ct,r:Vt,"#size":pt,"#radius":gt,_:function(t,n){if(Array.isArray(t))for(var r=0;r<t.length;r++)this[t[r]]=n;else this[t]=n}},en=function(t){!function(t,n){if("function"!=typeof n&&null!==n)throw new TypeError("Super expression must either be null or a function");t.prototype=Object.create(n&&n.prototype,{constructor:{value:t,writable:!0,configurable:!0}}),n&&l(t,n)}(o,t);var n,r,i=(n=o,r=f(),function(){var t,e=a(n);if(r){var i=a(this).constructor;t=Reflect.construct(e,arguments,i)}else t=e.apply(this,arguments);return c(this,t)});function o(){return e(this,o),i.apply(this,arguments)}return u(o,null,[{key:"build",value:function(t){var n=h(a(o),"build",this).call(this,t,rn);if(!n)return null;n.el,n.options,function(t,n,r){t.play()}(n.player)}}]),o}(ft);return en.init(),en}));
(function(s,i,o,w,a,b){w[o]=w[o]||{};w[o][s]=w[o][s]||[];w[o][s].push(i);})('7c8cb2ed',{"root":"eS08yYBJjb91","animations":[{"elements":{"eS08yYBJjb92":{"transform":{"data":{"o":{"x":300,"y":300,"type":"corner"},"t":{"x":-18,"y":-17.999999}},"keys":{"r":[{"t":0,"v":720,"e":[0.23,1,0.5,1]},{"t":2500,"v":720,"e":[0.37,-0.005,0.44,1]},{"t":3500,"v":1260}],"s":[{"t":0,"v":{"x":13,"y":13},"e":[0,0,0.58,1]},{"t":2500,"v":{"x":13,"y":13},"e":[0.37,-0.005,0.44,1]},{"t":3200,"v":{"x":1,"y":1}}]}},"opacity":[{"t":0,"v":1},{"t":2500,"v":1,"e":[0.82,0,0.285,0.995]},{"t":3500,"v":0}]},"eS08yYBJjb910":{"transform":{"data":{"o":{"x":300,"y":300,"type":"corner"},"t":{"x":-17.999999,"y":-18.000851}},"keys":{"r":[{"t":2800,"v":50,"e":[0.1,0.465,0.44,1]},{"t":3800,"v":720,"e":[0.025,0.685,0.44,1]},{"t":6300,"v":720,"e":[0.37,-0.005,0.44,1]},{"t":7300,"v":1260}],"s":[{"t":2800,"v":{"x":3,"y":3},"e":[0.38,0.055,0.44,1]},{"t":3800,"v":{"x":13,"y":13},"e":[0,0,0.58,1]},{"t":6300,"v":{"x":13,"y":13},"e":[0.37,-0.005,0.44,1]},{"t":7000,"v":{"x":1,"y":1}}]}},"opacity":[{"t":2800,"v":0,"e":[0,1,0.44,1]},{"t":3800,"v":1},{"t":6300,"v":1,"e":[0.82,0,0.285,0.995]},{"t":7300,"v":0}]},"eS08yYBJjb925":{"transform":{"data":{"o":{"x":300,"y":300,"type":"corner"},"t":{"x":-17.999994,"y":-18}},"keys":{"r":[{"t":6600,"v":50,"e":[0.1,0.465,0.44,1]},{"t":7600,"v":720,"e":[0.025,0.685,0.44,1]},{"t":10100,"v":720,"e":[0.37,-0.005,0.44,1]},{"t":11100,"v":1260}],"s":[{"t":6600,"v":{"x":3,"y":3},"e":[0.38,0.055,0.44,1]},{"t":7600,"v":{"x":13,"y":13},"e":[0,0,0.58,1]},{"t":10100,"v":{"x":13,"y":13},"e":[0.37,-0.005,0.44,1]},{"t":10800,"v":{"x":1,"y":1}}]}},"opacity":[{"t":6600,"v":0,"e":[0,1,0.44,1]},{"t":7600,"v":1},{"t":10100,"v":1,"e":[0.82,0,0.285,0.995]},{"t":11100,"v":0}]},"eS08yYBJjb934":{"transform":{"data":{"o":{"x":300,"y":300,"type":"corner"},"t":{"x":-17.999998,"y":-18.001998}},"keys":{"r":[{"t":10400,"v":50,"e":[0.1,0.465,0.44,1]},{"t":11400,"v":720,"e":[0.025,0.685,0.44,1]},{"t":13900,"v":720,"e":[0.37,-0.005,0.44,1]},{"t":14900,"v":1260}],"s":[{"t":10400,"v":{"x":3,"y":3},"e":[0.38,0.055,0.44,1]},{"t":11400,"v":{"x":13,"y":13},"e":[0,0,0.58,1]},{"t":13900,"v":{"x":13,"y":13},"e":[0.37,-0.005,0.44,1]},{"t":14600,"v":{"x":1,"y":1}}]}},"opacity":[{"t":10400,"v":0,"e":[0,1,0.44,1]},{"t":11400,"v":1},{"t":13900,"v":1,"e":[0.82,0,0.285,0.995]},{"t":14900,"v":0}]},"eS08yYBJjb949":{"transform":{"data":{"o":{"x":300,"y":300,"type":"corner"},"t":{"x":-18,"y":-17.999999}},"keys":{"r":[{"t":14200,"v":50,"e":[0.1,0.465,0.44,1]},{"t":15200,"v":720,"e":[0.025,0.685,0.44,1]}],"s":[{"t":14200,"v":{"x":3,"y":3},"e":[0.38,0.055,0.44,1]},{"t":15200,"v":{"x":13,"y":13},"e":[0,0,0.58,1]}]}},"opacity":[{"t":14200,"v":0,"e":[0,1,0.44,1]},{"t":15200,"v":1}]}},"s":"MDA1JNE1kMzdhYmNjZGNhYjljY2MxGYzdjNkk3YTkyODk4ZDhhODg4AODg0N2FiY09jMWNhYmRiYmNjCYzFjN2M2N2E5Mjg5ODQ3YUNjKMWNjYmRjYWI5Y2NZYzFjN2M2HY2I3YTkyODg4NDdhYmVjMWM0DYzQ3YTkyODk4NDdhYjljNGNjCYmRjYWM2YjljY2JkN2E5MmJlBYjljNGNiYmQ4NDdhY2JjOGJkRYmRiYzdhOTI4OWQ1"}],"options":"MDAxVMDhmMzY4N0g4ODc1ODY4ODM2GNGUzNjgwODM3NTc4MzY5MQ|"},'__SVGATOR_PLAYER__',window)]]></script></svg>