<?xml version="1.0" encoding="UTF-8" standalone="no"?>
<!DOCTYPE svg PUBLIC "-//W3C//DTD SVG 1.1//EN" "http://www.w3.org/Graphics/SVG/1.1/DTD/svg11.dtd">
<svg width="100%" height="100%" viewBox="0 0 272 88" version="1.1" xmlns="http://www.w3.org/2000/svg" xmlns:xlink="http://www.w3.org/1999/xlink" xml:space="preserve" xmlns:serif="http://www.serif.com/" style="fill-rule:evenodd;clip-rule:evenodd;stroke-linejoin:round;stroke-miterlimit:2;">
    <g transform="matrix(1,0,0,1,-1130.64,-1075.37)">
        <g id="docs-website-logo" serif:id="docs website logo" transform="matrix(9.22937e-18,-0.150727,0.589584,3.61016e-17,439.724,1331.15)">
            <rect x="1113.14" y="1171.87" width="583.837" height="460.467" style="fill:none;"/>
            <clipPath id="_clip1">
                <rect x="1113.14" y="1171.87" width="583.837" height="460.467"/>
            </clipPath>
            <g clip-path="url(#_clip1)">
                <g transform="matrix(9.92937e-16,4.14559,-16.2159,2.53844e-16,1696.98,1171.87)">
                    <path id="_1f62f-head" serif:id="1f62f-head" d="M36,18C36,27.941 27.941,36 18,36C8.059,36 0,27.941 0,18C0,8.059 8.059,0 18,0C27.941,0 36,8.059 36,18" style="fill:rgb(255,204,77);fill-rule:nonzero;"/>
                    <circle id="_1f633-cheeks" serif:id="1f633-cheeks" cx="29" cy="23" r="5" style="fill:rgb(255,120,146);"/>
                    <circle id="_1f633-cheeks1" serif:id="1f633-cheeks1" cx="7" cy="23" r="5" style="fill:rgb(255,120,146);"/>
                    <path id="_1f92a-mouth" serif:id="1f92a-mouth" d="M18.625,20.937C15.082,21.696 12.644,21.787 9.615,21.845C8.924,21.86 7.66,22.264 8.079,24.22C8.917,28.131 14.458,32.057 20.721,30.715C26.983,29.373 30.429,23.521 29.591,19.61C29.172,17.654 27.852,17.802 27.216,18.074C24.43,19.261 22.168,20.178 18.625,20.937Z" style="fill:rgb(101,71,27);fill-rule:nonzero;"/>
                    <path id="_1f92a-mouth1" serif:id="1f92a-mouth1" d="M11,24.004L11,30.004C11,33.004 13,36.004 17,36.004C21,36.004 23,33.004 23,30.004L23,24.004L11,24.004Z" style="fill:rgb(232,89,110);fill-rule:nonzero;"/>
                    <path id="_1f92a-mouth2" serif:id="1f92a-mouth2" d="M17,31.883C17.301,31.883 17.545,31.639 17.545,31.338L17.545,25.043L16.454,25.043L16.454,31.338C16.455,31.639 16.699,31.883 17,31.883Z" style="fill:rgb(221,47,69);fill-rule:nonzero;"/>
                    <path id="_1f92a-mouth3" serif:id="1f92a-mouth3" d="M10.034,23.801C10.034,23.801 13.177,24.15 19.044,22.893C24.911,21.636 27.635,20.029 27.635,20.029C27.635,20.029 26.518,24.359 19.673,25.826C12.828,27.293 10.034,23.801 10.034,23.801Z" style="fill:white;fill-rule:nonzero;"/>
                    <path id="_1f61c-eyes" serif:id="1f61c-eyes" d="M15.457,15.815C15.397,15.68 13.958,12.518 11,12.518C8.043,12.518 6.603,15.68 6.543,15.815C6.451,16.022 6.511,16.264 6.687,16.406C6.864,16.549 7.114,16.553 7.297,16.42C7.31,16.411 8.559,15.518 11,15.518C13.426,15.518 14.674,16.399 14.702,16.419C14.79,16.485 14.895,16.518 15,16.518C15.11,16.518 15.221,16.481 15.311,16.409C15.49,16.267 15.549,16.023 15.457,15.815Z" style="fill:rgb(102,71,27);fill-rule:nonzero;"/>
                    <path id="_1f61c-eyes1" serif:id="1f61c-eyes1" d="M31,13.5C31,17.09 28.09,20 24.5,20C20.91,20 18,17.09 18,13.5C18,9.91 20.91,7 24.5,7C28.09,7 31,9.91 31,13.5Z" style="fill:rgb(245,248,250);fill-rule:nonzero;"/>
                    <circle id="_1f61c-eyes2" serif:id="1f61c-eyes2" cx="24.5" cy="13.5" r="2.5" style="fill:rgb(41,47,51);"/>
                    <path id="_1f607-headwear" serif:id="1f607-headwear" d="M23.777,0.345C22.565,0.251 21.304,0.186 20.004,0.155C19.343,0.139 18.676,0.129 18,0.129C17.328,0.129 16.664,0.139 16.007,0.154C14.705,0.185 13.443,0.25 12.23,0.344C5.34,0.88 0.169,2.451 0.169,5.287C0.169,8.875 8.433,11.058 18,11.058C27.567,11.058 35.831,8.875 35.831,5.287C35.831,2.452 30.663,0.882 23.777,0.345ZM18,7.383C11.139,7.383 5.09,6.55 5.09,4.647C5.09,4.111 5.584,3.624 6.429,3.198C7.582,2.617 9.407,2.154 11.618,1.849C13.529,1.587 15.716,1.439 18,1.439C20.291,1.439 22.485,1.587 24.4,1.852C26.642,2.162 28.486,2.635 29.632,3.229C30.439,3.647 30.91,4.123 30.91,4.647C30.91,6.55 24.861,7.383 18,7.383Z" style="fill:rgb(93,173,236);fill-rule:nonzero;"/>
                    <path id="_1f607-other" serif:id="1f607-other" d="M24.4,1.853C26.642,2.163 28.486,2.636 29.632,3.23L29.694,3.247C27.409,1.573 25.124,0.687 23.777,0.345C22.565,0.251 21.304,0.186 20.004,0.155L20.022,0.162L24.4,1.853Z" style="fill:rgb(59,148,217);fill-rule:nonzero;"/>
                    <path id="_1f607-other1" serif:id="1f607-other1" d="M6.429,3.199C7.582,2.618 9.407,2.155 11.618,1.85L15.984,0.162L16.007,0.154C14.705,0.185 13.443,0.25 12.23,0.344C10.883,0.686 8.597,1.571 6.311,3.246L6.429,3.199Z" style="fill:rgb(59,148,217);fill-rule:nonzero;"/>
                    <path id="_1f607-other2" serif:id="1f607-other2" d="M28.472,3.375C27.812,2.932 27.126,2.465 26.471,2.115C23.947,0.765 21.063,0 18,0C15.071,0 12.305,0.7 9.86,1.941C8.771,2.494 7.979,2.94 7.69,3.375L28.472,3.375Z" style="fill:rgb(255,204,77);fill-rule:nonzero;"/>
                </g>
                <g transform="matrix(2.7138e-18,0.0113303,-0.0443198,6.93783e-19,1831.28,1354.67)">
                    <g transform="matrix(4654.87,0,0,4654.87,1013.58,6195.63)">
                        <path d="M0.375,0.02C0.267,0.02 0.184,-0.005 0.126,-0.054C0.068,-0.102 0.039,-0.171 0.039,-0.26C0.039,-0.349 0.068,-0.418 0.126,-0.467C0.184,-0.516 0.267,-0.54 0.375,-0.54L0.429,-0.54C0.521,-0.54 0.594,-0.522 0.649,-0.487C0.703,-0.451 0.735,-0.4 0.746,-0.335L0.523,-0.306C0.518,-0.337 0.504,-0.361 0.483,-0.378C0.461,-0.395 0.431,-0.403 0.393,-0.403C0.352,-0.403 0.319,-0.391 0.295,-0.366C0.27,-0.341 0.258,-0.305 0.258,-0.26C0.258,-0.215 0.27,-0.18 0.295,-0.155C0.319,-0.13 0.352,-0.117 0.393,-0.117C0.431,-0.117 0.461,-0.126 0.483,-0.143C0.504,-0.16 0.518,-0.183 0.523,-0.214L0.746,-0.185C0.735,-0.12 0.703,-0.069 0.649,-0.034C0.594,0.002 0.521,0.02 0.429,0.02L0.375,0.02Z" style="fill:white;fill-rule:nonzero;"/>
                    </g>
                    <g transform="matrix(4654.87,0,0,4654.87,4607.14,6195.63)">
                        <path d="M0.747,-0.52L0.747,-0L0.547,-0L0.547,-0.083C0.526,-0.05 0.497,-0.024 0.46,-0.007C0.423,0.011 0.38,0.02 0.331,0.02L0.296,0.02C0.249,0.02 0.208,0.01 0.172,-0.011C0.136,-0.031 0.108,-0.06 0.088,-0.098C0.067,-0.135 0.057,-0.18 0.057,-0.232L0.057,-0.52L0.269,-0.52L0.269,-0.269C0.269,-0.175 0.312,-0.128 0.398,-0.128C0.443,-0.128 0.478,-0.14 0.501,-0.165C0.524,-0.19 0.536,-0.226 0.536,-0.275L0.536,-0.52L0.747,-0.52Z" style="fill:white;fill-rule:nonzero;"/>
                    </g>
                    <g transform="matrix(4654.87,0,0,4654.87,8377.59,6195.63)">
                        <path d="M0.344,0.02C0.257,0.02 0.186,0.007 0.132,-0.018C0.077,-0.043 0.045,-0.079 0.034,-0.126L0.242,-0.162C0.255,-0.119 0.297,-0.098 0.367,-0.098C0.428,-0.098 0.458,-0.112 0.458,-0.141C0.458,-0.156 0.452,-0.167 0.442,-0.175C0.431,-0.182 0.413,-0.187 0.388,-0.19L0.258,-0.205C0.186,-0.214 0.134,-0.231 0.102,-0.258C0.069,-0.285 0.053,-0.323 0.053,-0.373C0.053,-0.426 0.078,-0.468 0.129,-0.497C0.179,-0.526 0.25,-0.54 0.341,-0.54L0.376,-0.54C0.459,-0.54 0.526,-0.528 0.579,-0.503C0.631,-0.478 0.662,-0.444 0.673,-0.399L0.475,-0.368C0.471,-0.389 0.46,-0.404 0.442,-0.413C0.423,-0.422 0.396,-0.426 0.359,-0.426C0.326,-0.426 0.303,-0.423 0.289,-0.416C0.274,-0.409 0.267,-0.398 0.267,-0.384C0.267,-0.371 0.272,-0.362 0.282,-0.356C0.291,-0.35 0.309,-0.345 0.335,-0.342L0.464,-0.324C0.539,-0.314 0.593,-0.297 0.625,-0.272C0.656,-0.247 0.672,-0.209 0.672,-0.159C0.672,-0.1 0.647,-0.056 0.597,-0.026C0.547,0.005 0.474,0.02 0.379,0.02L0.344,0.02Z" style="fill:white;fill-rule:nonzero;"/>
                    </g>
                    <g transform="matrix(4654.87,0,0,4654.87,11650,6195.63)">
                        <path d="M0.343,-0.391L0.343,-0.248C0.343,-0.215 0.349,-0.191 0.362,-0.178C0.375,-0.164 0.398,-0.157 0.433,-0.157L0.506,-0.157L0.506,-0L0.35,-0C0.278,-0 0.224,-0.019 0.187,-0.056C0.15,-0.093 0.132,-0.148 0.132,-0.221L0.132,-0.391L0.011,-0.391L0.011,-0.52L0.145,-0.52L0.196,-0.68L0.343,-0.68L0.343,-0.52L0.506,-0.52L0.506,-0.391L0.343,-0.391Z" style="fill:white;fill-rule:nonzero;"/>
                    </g>
                    <g transform="matrix(4654.87,0,0,4654.87,14135.7,6195.63)">
                        <path d="M0.38,0.02C0.271,0.02 0.187,-0.005 0.128,-0.054C0.069,-0.103 0.039,-0.172 0.039,-0.26C0.039,-0.348 0.069,-0.417 0.128,-0.466C0.187,-0.515 0.271,-0.54 0.38,-0.54L0.432,-0.54C0.541,-0.54 0.625,-0.515 0.684,-0.466C0.743,-0.417 0.773,-0.348 0.773,-0.26C0.773,-0.172 0.743,-0.103 0.684,-0.054C0.625,-0.005 0.541,0.02 0.432,0.02L0.38,0.02ZM0.406,-0.11C0.453,-0.11 0.49,-0.123 0.515,-0.15C0.54,-0.177 0.553,-0.213 0.553,-0.26C0.553,-0.307 0.54,-0.343 0.515,-0.37C0.49,-0.397 0.453,-0.41 0.406,-0.41C0.359,-0.41 0.322,-0.397 0.297,-0.37C0.272,-0.343 0.259,-0.307 0.259,-0.26C0.259,-0.213 0.272,-0.177 0.297,-0.15C0.322,-0.123 0.359,-0.11 0.406,-0.11Z" style="fill:white;fill-rule:nonzero;"/>
                    </g>
                    <g transform="matrix(4654.87,0,0,4654.87,17915.4,6195.63)">
                        <path d="M0.938,-0.54C1.006,-0.54 1.059,-0.52 1.098,-0.479C1.137,-0.438 1.156,-0.38 1.156,-0.305L1.156,-0L0.945,-0L0.945,-0.255C0.945,-0.302 0.936,-0.336 0.918,-0.358C0.9,-0.379 0.871,-0.39 0.832,-0.39C0.794,-0.39 0.765,-0.379 0.745,-0.356C0.725,-0.333 0.715,-0.3 0.715,-0.259L0.715,-0L0.504,-0L0.504,-0.255C0.504,-0.301 0.495,-0.335 0.477,-0.357C0.458,-0.379 0.429,-0.39 0.389,-0.39C0.353,-0.39 0.325,-0.379 0.305,-0.356C0.284,-0.333 0.274,-0.303 0.274,-0.266L0.274,-0L0.063,-0L0.063,-0.52L0.263,-0.52L0.263,-0.439C0.281,-0.472 0.307,-0.498 0.34,-0.515C0.373,-0.532 0.414,-0.54 0.461,-0.54L0.497,-0.54C0.591,-0.54 0.655,-0.506 0.688,-0.438C0.731,-0.506 0.802,-0.54 0.902,-0.54L0.938,-0.54Z" style="fill:white;fill-rule:nonzero;"/>
                    </g>
                    <g transform="matrix(4654.87,0,0,4654.87,1013.58,10850.5)">
                        <path d="M0.343,-0.391L0.343,-0.248C0.343,-0.215 0.349,-0.191 0.362,-0.178C0.375,-0.164 0.398,-0.157 0.433,-0.157L0.506,-0.157L0.506,-0L0.35,-0C0.278,-0 0.224,-0.019 0.187,-0.056C0.15,-0.093 0.132,-0.148 0.132,-0.221L0.132,-0.391L0.011,-0.391L0.011,-0.52L0.145,-0.52L0.196,-0.68L0.343,-0.68L0.343,-0.52L0.506,-0.52L0.506,-0.391L0.343,-0.391Z" style="fill:white;fill-rule:nonzero;"/>
                    </g>
                    <g transform="matrix(4654.87,0,0,4654.87,3499.28,10850.5)">
                        <path d="M0.011,-0.52L0.223,-0.52L0.318,-0.161L0.434,-0.52L0.652,-0.52L0.768,-0.161L0.862,-0.52L1.075,-0.52L0.886,-0L0.659,-0L0.543,-0.359L0.427,-0L0.2,-0L0.011,-0.52Z" style="fill:white;fill-rule:nonzero;"/>
                    </g>
                    <g transform="matrix(4654.87,0,0,4654.87,8554.47,10850.5)">
                        <path d="M0.728,-0.21L0.242,-0.21C0.245,-0.178 0.26,-0.153 0.287,-0.134C0.314,-0.115 0.347,-0.106 0.388,-0.106C0.459,-0.106 0.508,-0.126 0.533,-0.167L0.723,-0.129C0.706,-0.084 0.67,-0.047 0.616,-0.021C0.562,0.007 0.493,0.02 0.41,0.02L0.362,0.02C0.261,0.02 0.182,-0.005 0.125,-0.055C0.068,-0.104 0.039,-0.173 0.039,-0.261C0.039,-0.316 0.052,-0.365 0.078,-0.407C0.104,-0.449 0.141,-0.482 0.19,-0.505C0.238,-0.528 0.295,-0.54 0.36,-0.54L0.415,-0.54C0.48,-0.54 0.537,-0.528 0.584,-0.504C0.631,-0.48 0.667,-0.447 0.692,-0.404C0.716,-0.361 0.728,-0.312 0.728,-0.256L0.728,-0.21ZM0.383,-0.424C0.342,-0.424 0.308,-0.415 0.283,-0.396C0.257,-0.377 0.243,-0.351 0.241,-0.32L0.526,-0.32C0.525,-0.353 0.512,-0.378 0.487,-0.397C0.461,-0.415 0.426,-0.424 0.383,-0.424Z" style="fill:white;fill-rule:nonzero;"/>
                    </g>
                    <g transform="matrix(4654.87,0,0,4654.87,12110.8,10850.5)">
                        <path d="M0.938,-0.54C1.006,-0.54 1.059,-0.52 1.098,-0.479C1.137,-0.438 1.156,-0.38 1.156,-0.305L1.156,-0L0.945,-0L0.945,-0.255C0.945,-0.302 0.936,-0.336 0.918,-0.358C0.9,-0.379 0.871,-0.39 0.832,-0.39C0.794,-0.39 0.765,-0.379 0.745,-0.356C0.725,-0.333 0.715,-0.3 0.715,-0.259L0.715,-0L0.504,-0L0.504,-0.255C0.504,-0.301 0.495,-0.335 0.477,-0.357C0.458,-0.379 0.429,-0.39 0.389,-0.39C0.353,-0.39 0.325,-0.379 0.305,-0.356C0.284,-0.333 0.274,-0.303 0.274,-0.266L0.274,-0L0.063,-0L0.063,-0.52L0.263,-0.52L0.263,-0.439C0.281,-0.472 0.307,-0.498 0.34,-0.515C0.373,-0.532 0.414,-0.54 0.461,-0.54L0.497,-0.54C0.591,-0.54 0.655,-0.506 0.688,-0.438C0.731,-0.506 0.802,-0.54 0.902,-0.54L0.938,-0.54Z" style="fill:white;fill-rule:nonzero;"/>
                    </g>
                    <g transform="matrix(4654.87,0,0,4654.87,17757.2,10850.5)">
                        <path d="M0.38,0.02C0.271,0.02 0.187,-0.005 0.128,-0.054C0.069,-0.103 0.039,-0.172 0.039,-0.26C0.039,-0.348 0.069,-0.417 0.128,-0.466C0.187,-0.515 0.271,-0.54 0.38,-0.54L0.432,-0.54C0.541,-0.54 0.625,-0.515 0.684,-0.466C0.743,-0.417 0.773,-0.348 0.773,-0.26C0.773,-0.172 0.743,-0.103 0.684,-0.054C0.625,-0.005 0.541,0.02 0.432,0.02L0.38,0.02ZM0.406,-0.11C0.453,-0.11 0.49,-0.123 0.515,-0.15C0.54,-0.177 0.553,-0.213 0.553,-0.26C0.553,-0.307 0.54,-0.343 0.515,-0.37C0.49,-0.397 0.453,-0.41 0.406,-0.41C0.359,-0.41 0.322,-0.397 0.297,-0.37C0.272,-0.343 0.259,-0.307 0.259,-0.26C0.259,-0.213 0.272,-0.177 0.297,-0.15C0.322,-0.123 0.359,-0.11 0.406,-0.11Z" style="fill:white;fill-rule:nonzero;"/>
                    </g>
                    <g transform="matrix(4654.87,0,0,4654.87,21536.9,10850.5)">
                        <path d="M0.004,0.031L0.04,0.031C0.051,0.031 0.061,0.027 0.069,0.019C0.076,0.01 0.08,-0.001 0.08,-0.014L0.08,-0.52L0.291,-0.52L0.291,-0.011C0.291,0.036 0.278,0.075 0.253,0.105C0.228,0.135 0.195,0.15 0.156,0.15L0.004,0.15L0.004,0.031ZM0.178,-0.554C0.143,-0.554 0.117,-0.562 0.098,-0.579C0.079,-0.595 0.07,-0.617 0.07,-0.646L0.07,-0.65C0.07,-0.679 0.079,-0.701 0.098,-0.718C0.117,-0.735 0.143,-0.743 0.178,-0.743L0.194,-0.743C0.228,-0.743 0.254,-0.735 0.273,-0.718C0.292,-0.701 0.301,-0.679 0.301,-0.65L0.301,-0.646C0.301,-0.617 0.292,-0.595 0.273,-0.579C0.254,-0.562 0.228,-0.554 0.194,-0.554L0.178,-0.554Z" style="fill:white;fill-rule:nonzero;"/>
                    </g>
                    <g transform="matrix(4654.87,0,0,4654.87,23184.7,10850.5)">
                        <path d="M0.063,-0.52L0.274,-0.52L0.274,-0L0.063,-0L0.063,-0.52ZM0.161,-0.554C0.126,-0.554 0.1,-0.562 0.081,-0.579C0.062,-0.595 0.053,-0.617 0.053,-0.646L0.053,-0.65C0.053,-0.679 0.062,-0.701 0.081,-0.718C0.1,-0.735 0.126,-0.743 0.161,-0.743L0.177,-0.743C0.211,-0.743 0.237,-0.735 0.256,-0.718C0.275,-0.701 0.284,-0.679 0.284,-0.65L0.284,-0.646C0.284,-0.617 0.275,-0.595 0.256,-0.579C0.237,-0.562 0.211,-0.554 0.177,-0.554L0.161,-0.554Z" style="fill:white;fill-rule:nonzero;"/>
                    </g>
                    <g transform="matrix(4654.87,0,0,4654.87,1013.58,15505.4)">
                        <path d="M0.757,-0.136L0.757,-0L0.62,-0C0.557,-0 0.515,-0.023 0.492,-0.07C0.444,-0.01 0.37,0.02 0.269,0.02L0.247,0.02C0.181,0.02 0.129,0.007 0.091,-0.02C0.052,-0.047 0.033,-0.083 0.033,-0.129C0.033,-0.182 0.052,-0.222 0.091,-0.251C0.13,-0.28 0.186,-0.299 0.261,-0.308L0.474,-0.336C0.473,-0.367 0.465,-0.389 0.449,-0.402C0.433,-0.415 0.408,-0.422 0.374,-0.422C0.345,-0.422 0.321,-0.416 0.302,-0.404C0.283,-0.392 0.272,-0.374 0.267,-0.35L0.042,-0.371C0.053,-0.423 0.086,-0.464 0.143,-0.495C0.2,-0.525 0.272,-0.54 0.361,-0.54L0.397,-0.54C0.494,-0.54 0.567,-0.521 0.616,-0.483C0.665,-0.445 0.689,-0.387 0.689,-0.308L0.689,-0.188C0.689,-0.172 0.693,-0.159 0.701,-0.15C0.708,-0.141 0.719,-0.136 0.734,-0.136L0.757,-0.136ZM0.341,-0.094C0.379,-0.094 0.411,-0.106 0.436,-0.13C0.461,-0.153 0.474,-0.183 0.474,-0.219L0.474,-0.238L0.364,-0.223C0.327,-0.218 0.301,-0.21 0.285,-0.198C0.268,-0.186 0.26,-0.17 0.26,-0.151C0.26,-0.134 0.267,-0.12 0.282,-0.11C0.297,-0.099 0.316,-0.094 0.341,-0.094Z" style="fill:white;fill-rule:nonzero;"/>
                    </g>
                    <g transform="matrix(4654.87,0,0,4654.87,4565.25,15505.4)">
                        <path d="M0.514,-0.54C0.571,-0.54 0.62,-0.529 0.661,-0.507C0.702,-0.484 0.734,-0.452 0.757,-0.41C0.779,-0.368 0.79,-0.318 0.79,-0.261C0.79,-0.204 0.779,-0.154 0.757,-0.112C0.734,-0.069 0.702,-0.037 0.661,-0.014C0.62,0.009 0.571,0.02 0.514,0.02L0.478,0.02C0.43,0.02 0.389,0.013 0.356,-0.001C0.323,-0.014 0.295,-0.035 0.274,-0.064L0.274,0.15L0.063,0.15L0.063,-0.52L0.263,-0.52L0.263,-0.449C0.284,-0.479 0.313,-0.502 0.35,-0.517C0.386,-0.532 0.429,-0.54 0.478,-0.54L0.514,-0.54ZM0.419,-0.11C0.466,-0.11 0.503,-0.123 0.53,-0.15C0.557,-0.177 0.57,-0.214 0.57,-0.261C0.57,-0.308 0.557,-0.345 0.53,-0.372C0.503,-0.398 0.466,-0.411 0.419,-0.411C0.374,-0.411 0.338,-0.399 0.311,-0.375C0.284,-0.35 0.27,-0.317 0.27,-0.274L0.27,-0.25C0.27,-0.207 0.283,-0.172 0.31,-0.148C0.337,-0.123 0.373,-0.11 0.419,-0.11Z" style="fill:white;fill-rule:nonzero;"/>
                    </g>
                    <g transform="matrix(4654.87,0,0,4654.87,8424.13,15505.4)">
                        <path d="M0.063,-0.52L0.274,-0.52L0.274,-0L0.063,-0L0.063,-0.52ZM0.161,-0.554C0.126,-0.554 0.1,-0.562 0.081,-0.579C0.062,-0.595 0.053,-0.617 0.053,-0.646L0.053,-0.65C0.053,-0.679 0.062,-0.701 0.081,-0.718C0.1,-0.735 0.126,-0.743 0.161,-0.743L0.177,-0.743C0.211,-0.743 0.237,-0.735 0.256,-0.718C0.275,-0.701 0.284,-0.679 0.284,-0.65L0.284,-0.646C0.284,-0.617 0.275,-0.595 0.256,-0.579C0.237,-0.562 0.211,-0.554 0.177,-0.554L0.161,-0.554Z" style="fill:white;fill-rule:nonzero;"/>
                    </g>
                </g>
            </g>
        </g>
    </g>
</svg>
